<svg xmlns="http://www.w3.org/2000/svg" xmlns:xlink="http://www.w3.org/1999/xlink" viewBox="0 0 1344 1268" fill-rule="evenodd" stroke-linejoin="round" stroke-miterlimit="2"><style>.B{fill:#ffa78f}.C{fill-rule:nonzero}.D{fill:#0a6adb}.E{fill:#fff}.F{fill:#ee6f57}.G{fill:#a8dda8}.H{fill:#2d6187}.I{fill:#2e353d}.J{fill:#df9107}.K{fill:#c44e3d}.L{fill:#e9eefb}.M{fill:#82af82}.N{fill:#baccf6}.O{fill:#c75f48}.P{fill:#ffae04}</style><g class="C"><path d="m403.42 580.541 47.71-103.69 6.39 69.21-17.03 46.62-37.07-12.14z" class="B"/><path d="M361.1 732.531s11.75-73.92 14.77-83.32l13.1-40.99 15.79-6.05 30.57 4.37-8.65 91.05-12.52 38.53-17.46 10.53-35.6-14.12z" class="F"/><path d="M388.98 608.221c-4.03-1.34 5.36-24.53 7.72-27.21 2.36-2.69 43.35 6.72 49.4 16.46s-8.06 21.17-8.06 21.17l-49.06-10.42z" class="K"/><path d="m653.8 140.651-88.63 38.67-128.68 33.6 2.92-115.22 39.41-52.77s4.73-1.84 13.03-3.51l2.79-.54c13.48-2.4 34.58-3.94 59.44 2.03 43.34 10.42 99.72 97.74 99.72 97.74z" class="G"/><path d="m520.15 94.871-1.74 27.39h8.16l-6.42-27.39zm-27.9 29.36c-20.01 14.86-35.66 91-35.66 91l56.35-27.33-20.69-63.67z" class="M"/><path d="M1089.12 210.831 971 1226.801c-1.83 15.77-16.09 27.06-31.86 25.23l-547.37-63.64c-15.77-1.83-27.06-16.1-25.23-31.86l3.32-28.56 114.8-987.42c1.83-15.74 16.1-27.03 31.86-25.2l339.21 39.44 208.16 24.2c15.77 1.83 27.06 16.09 25.23 31.84z" class="D"/><path d="m855.73 154.791-442.05 1035.34-43.82-62.16 114.8-987.42c1.83-15.74 16.1-27.03 31.86-25.2l339.21 39.44z" fill="#53a4f4"/><path d="m1133.44 215.981-90.41 777.63-16.42 141.24-11.29 97.11c-1.83 15.76-16.1 27.05-31.86 25.22l-44.32-5.15c15.77 1.83 30.03-9.46 31.86-25.23l24.13-207.51 3.57-30.74 90.42-777.72c1.83-15.75-9.46-30.01-25.23-31.84l44.32 5.15c15.77 1.83 27.06 16.09 25.23 31.84z" class="H"/><path d="m1043.03 993.611-16.42 141.24-31.48-115.56 3.57-30.74 44.33 5.06z" class="I"/><path d="m1047.91 212.621-523.55-60.87c-9.45-1.1-17.99 5.67-19.09 15.11l-109.73 943.81c-1.1 9.45 5.67 17.99 15.11 19.09l523.55 60.87c9.45 1.1 17.99-5.67 19.09-15.11l109.73-943.81a17.21 17.21 0 0 0-15.11-19.09z" class="E"/><path d="m980.93 704.181-48.91 420.71c-2.36 20.28-17.05 35.24-32.81 33.4l-447.07-51.98c-1.56-.18-3.08-.53-4.53-1.02-13.25-4.39-21.86-20.74-19.74-39.02l48.91-420.71c2.36-20.28 17.05-35.22 32.81-33.38l447.07 51.98c15.76 1.84 26.63 19.74 24.27 40.02z" class="L"/></g><g class="N"><path d="m754.732 966.506 71.339 8.295-1.854 15.942-71.339-8.295zm-30.627 171.477 18.226-156.743L834.866 992l-18.226 156.743z"/><path d="m611.83 957.961 57.18 20.86-17.52 150.68-111.23-12.93 10.79-92.8 52.86 6.15 7.92-71.96zm-152.16 43.52-12.08 103.94c-13.32-3.77-22.33-16.74-20.68-30.94l7.73-66.48 25.03-6.52z" class="C"/></g><path d="m745.12 1206.781-156.71-18.22c-3.65-.42-6.26-3.73-5.84-7.38l1.03-8.84c.42-3.65 3.73-6.26 7.38-5.84l156.71 18.22c3.65.42 6.26 3.73 5.84 7.38l-1.03 8.84a6.662 6.662 0 0 1-7.38 5.84z" class="C E"/><path d="m941.55 710.961-429.14-49.89a13.65 13.65 0 0 0-15.13 11.98l-12.82 110.25a13.65 13.65 0 0 0 11.98 15.13l429.14 49.89a13.65 13.65 0 0 0 15.13-11.98l12.82-110.25c.87-7.49-4.49-14.26-11.98-15.13z" class="C D"/><g class="E"><path d="M841.64 812.321c-12.36-5.83-19.28-8.52-20.9-14.26s7.41-23.56 20.88-22.78c13.47.79 14.76 19.96 14.76 19.96 13.48 3.11 34.99-17.65 30.77-31.06 0 0-19.57-.72-20.74-13.92-1.18-13.2 16.71-22.55 22.6-21.13 5.9 1.43 9.1 8.01 15.12 20.1 13.98 28.11-39.96 73.73-62.49 63.09zm-7.19-47.08a2.99 2.99 0 0 1-2.98-2.73c-.79-8.84 6.15-25.4 22.82-26.95a3.01 3.01 0 0 1 3.26 2.71 2.996 2.996 0 0 1-2.71 3.26c-13.4 1.25-17.88 15.13-17.4 20.44a3.004 3.004 0 0 1-2.72 3.26c-.09 0-.18.01-.27.01zm-16.31-.65a2.99 2.99 0 0 1-2.98-2.73c-1.21-13.47 9.39-38.71 34.81-41.08a3.01 3.01 0 0 1 3.26 2.71 2.996 2.996 0 0 1-2.71 3.26c-22.95 2.13-30.22 25.28-29.39 34.57a3.004 3.004 0 0 1-2.72 3.26c-.09 0-.18.01-.27.01zm-286.15-61.77-9.18-1.07a1.41 1.41 0 0 1-1.24-1.57l1.07-9.18a1.41 1.41 0 0 1 1.57-1.24l9.18 1.07a1.41 1.41 0 0 1 1.24 1.57l-1.07 9.18c-.09.77-.79 1.33-1.57 1.24zm126.36 14.69-110.25-12.82a1.41 1.41 0 0 1-1.24-1.57l1.07-9.18a1.41 1.41 0 0 1 1.57-1.24l110.25 12.82a1.41 1.41 0 0 1 1.24 1.57l-1.07 9.18c-.09.77-.79 1.33-1.57 1.24zm-130.19 18.23-9.18-1.07a1.41 1.41 0 0 1-1.24-1.57l1.07-9.18a1.41 1.41 0 0 1 1.57-1.24l9.18 1.07a1.41 1.41 0 0 1 1.24 1.57l-1.07 9.18a1.41 1.41 0 0 1-1.57 1.24zM709 756.771l-164.73-19.15a1.41 1.41 0 0 1-1.24-1.57l1.07-9.18a1.41 1.41 0 0 1 1.57-1.24l164.73 19.15a1.41 1.41 0 0 1 1.24 1.57l-1.07 9.18c-.09.77-.79 1.33-1.57 1.24zm-184.66 11.9-9.18-1.07a1.41 1.41 0 0 1-1.24-1.57l1.07-9.18a1.41 1.41 0 0 1 1.57-1.24l9.18 1.07a1.41 1.41 0 0 1 1.24 1.57l-1.07 9.18c-.09.77-.8 1.33-1.57 1.24zm231.85 26.95-215.75-25.08a1.41 1.41 0 0 1-1.24-1.57l1.07-9.18a1.41 1.41 0 0 1 1.57-1.24l215.75 25.08a1.41 1.41 0 0 1 1.24 1.57l-1.07 9.18c-.09.77-.79 1.33-1.57 1.24z" class="C"/><use xlink:href="#B"/><use xlink:href="#B" x="20.54" y="2.39"/><use xlink:href="#B" x="41.079" y="4.78"/><use xlink:href="#B" x="61.619" y="7.171"/><use xlink:href="#B" x="-4.381" y="37.729"/><use xlink:href="#B" x="16.158" y="40.12"/><use xlink:href="#B" x="36.69" y="42.5"/><use xlink:href="#B" x="57.229" y="44.89"/><use xlink:href="#B" x="-8.771" y="75.448"/><use xlink:href="#B" x="11.769" y="77.838"/><use xlink:href="#B" x="32.308" y="80.23"/><use xlink:href="#B" x="52.838" y="82.619"/><use xlink:href="#B" x="-13.153" y="113.178"/><use xlink:href="#B" x="7.379" y="115.558"/><use xlink:href="#B" x="27.918" y="117.949"/><use xlink:href="#B" x="48.457" y="120.339"/><g class="C"><path d="m742.32 981.201-18.23 156.75-42.26-4.92 14.52-124.85 11.52-6.76 34.45-20.22z"/><path d="m754.76 966.491-1.85 15.95-10.59-1.24-34.45 20.22.92-7.95 45.97-26.98zm-142.93-8.53-37.95 21.19-5.43 46.65 35.46 4.12 7.92-71.96zm-60.78 65.81-26.41 14.75-8.75 75.22 24.37 2.83 10.79-92.8z"/></g><use xlink:href="#C"/><use xlink:href="#C" x="-8.251" y="71.02"/><use xlink:href="#C" x="-55.611" y="59.269"/><use xlink:href="#C" x="-43.761" y="103.369"/><use xlink:href="#C" x="-77.531" y="93.198"/><use xlink:href="#C" x="12.72" y="33.36"/><use xlink:href="#C" x="-18.73" y="22.64"/><path d="m498.63 1023.981-10.02 86.2-1.5.21-34.97-4.07c-1.56-.18-3.08-.49-4.55-.91l12.08-103.94 38.96 22.51z" class="C"/><path d="m429.302 1020.466 31.541-8.206 1.763 6.775-31.541 8.206z"/><path d="m434.146 1103.772 9.875-84.927 6.953.808-9.875 84.927z"/></g><g class="C"><path d="m938.8 1066.601-7.73 66.48c-1.83 15.76-16.1 27.05-31.86 25.22l-12.96-1.51 11.76-101.18 40.79 10.99z" class="N"/><path d="m898.01 1055.611-52.33 9.04-10.03 86.26 50.6 5.89 11.76-101.19z" class="E"/><path d="m881.55 1114.231-5.89 1.13 1.78-15.24 5.88-1.13-1.77 15.24zm-29.25 22.57-5.88 1.12 1.77-15.24 5.88-1.12-1.77 15.24zm32.38-49.48-5.89 1.12 1.78-15.24 5.88-1.12-1.77 15.24zm-27.08 3.92-5.88 1.12 1.77-15.24 5.88-1.12-1.77 15.24z" class="N"/><path d="m866 979.421 72.31 8.41s3.57-10.92-4.31-13.81-23.91 4.94-28.65 3.32 4.24-8.46-1.07-10.72-19.22 7.13-26.27 5.57-2.06-4.92-5.95-5.37-16.33 11.41-16.33 11.41l10.27 1.19zm-381.6-47.81 39.89 4.64s6.09-7.18-.84-12.59-23.42 3.52-23.42 3.52-.76-7.62-6.29-8.11-18.43 11.48-18.43 11.48l9.09 1.06z" class="E"/></g><circle cx="643.59" cy="883.001" r="20.6" class="E"/><g class="C"><path d="m140.51 1198.541-2.8 9.3-2.75 9.17-2.18 7.24-1.61.17-27.83 2.98-2.45-9.78-.53-2.1 5.38-14.79 34.77-2.19z" class="B"/><path d="m139.95 1207.251-4.99 9.76-3.79 7.41-27.83 2.98-2.45-9.78 36.82-9.78 2.24-.59z" class="O"/><path d="m138.75 1217.691-39.05 5.04-5.3 19.91 39.06 5.04 5.29-29.99z" class="B"/><path d="M26.45 1210.131c-7.9 2.23-9.41 11.42-8.4 14.11s12.77 4.48 23.35 1.91c10.58-2.58 23.18-12.49 27.21-14.34s21.84-7.73 23.18-14.95.72-13.44-10.64-11.59-28.83 18.79-33.03 20.9c-4.2 2.12-12.77 1.44-21.67 3.96z" fill="#80b5d6"/><path d="M98.18 1190.141c2.86 6.72-5.71 21.48-12.26 23.17l15.62 11.6s6.55-5.91 7.06-18.75-10.42-16.02-10.42-16.02zm349.94 26.55c-.35 15.12-14.68 50.33-33.94 50.36l-262.79.03c-12.78 0-23.8-8.06-25.49-10.42-.95-1.34 2.14-16.85 6.3-30.5v-.01c3.1-10.24 6.8-19.45 9.83-20.89 7.06-3.36 50.73-21.16 83.33-17.13 32.58 4.03 107.18-19.15 107.18-19.15s-46.37-144.66-47.15-175.51v-.05l-.1-10.57c.12-21.64 2.5-26.31 2.5-26.31l120.98 59.85c-.01 0 39.68 185.18 39.35 200.3z" class="H"/><path d="M332.54 1168.981s-74.6 23.18-107.18 19.15c-32.6-4.03-76.27 13.77-83.33 17.13-3.03 1.44-6.72 10.65-9.83 20.89-4.47-18.4 8.82-41.38 18.57-48.44 9.74-7.06 54.09-7.39 70.22-10.42 16.12-3.03 65.93-18.87 65.93-18.87l-1.53-154.95c.78 30.85 47.15 175.51 47.15 175.51z" class="I"/><path d="M500.28 837.951c13.43-4.54 56.02-37.29 60.81-40.57s4.03-8.44 8.32-14.36c4.28-5.92 3.02-17.77 6.68-21.42s6.55-1.39 6.93 2.9 1.89 9.83 2.52 9.83 27.72-18.65 32.63-18.77 4.49 1.89 2.48 7.06c-2.02 5.17-14.2 20.92-16.46 23.69-2.27 2.77-26.46 22.8-27.34 23.94-.88 1.13-73.74 72.05-84.94 75.34-11.21 3.26 8.37-47.64 8.37-47.64z" class="B"/><path d="m413.16 736.651-4.44 13.96-3.62-.1c-18.3-.67-43.51-18.8-36.78-28.39 11.59-3.61 44.84 14.53 44.84 14.53z" class="K"/><path d="M455.08 688.621c14.7-1.28 21.75-18.58 13.52-30.51s-19.15-1.01-19.15-1.01 5.21-22.85-11.26-25.7-26.88 15.22-27.05 28.61c0 0-17.14-2.4-24.86 5.32-7.73 7.73 3.9 23.29 3.9 23.29s-9.62-.44-12.3 11.66c-2.69 12.1 12.3 21.84 12.3 21.84l36.75-5.71 18.82-13.61 9.33-14.18z" class="I"/><path d="m443.15 740.171-1.47 4.46c-2.22 6.61-6.26 18.23-7.35 18.23-1.51 0-31.75-11.09-31.75-11.09l6.03-20.24 1.03-3.45s11.84 19.15 33.51 12.09z" class="B"/><path d="m483.73 851.651-14.62 50.06s-9.58 3.52-20.41-1.26c-10.83-4.79-15.12-10.84-15.12-10.84l-1.66 14c-3.86 32.13-13.39 108.66-16.99 112.26-4.53 4.53-43.34-11.09-68.03-23.94-24.7-12.85-58.72-31.25-61.24-38.3-2.51-7.06 13.36-74.58 22.44-96 7.21-17.04 33.42-65.32 43.84-84.32l4.28-7.82.01-.01s-14.12-7.79-9.83-23.72c4.28-15.92 21.92-19.62 21.92-19.62-6.72 9.58 18.48 27.72 36.78 28.39l3.62.1c16.74.32 30.76-1.28 34.44 3.43 3.94 5.05-3.45 14.45-3.45 14.45l37.97 71.74c1.17.64 6.05 11.4 6.05 11.4z" class="F"/><path d="M384.56 779.241s-24.56-3.22-32.62-5.95l4.28-7.82.01-.01c8.89 6.89 28.33 13.78 28.33 13.78zm49.02 110.36-1.66 14c-11.44-18.06-30.96-68.51-31.5-69.91.52 1.17 17.37 38.88 33.16 55.91zm44.09-49.38c3.7-2.69 20.83-4.71 22.35-4.2 1.51.5-3.86 42.67-8.74 50.73s-18.31 15.97-22.17 14.96 6.89-26.26 9.41-41-.85-20.49-.85-20.49z" class="K"/><path d="M443.16 740.171c-21.68 7.06-33.51-12.09-33.51-12.09s-13.36 6.56-18.15-2.27c-4.79-8.82 4.37-17.5 15.29-12.2 0 0 2.51-.73 1.51-7.62 0 0 6.56 2.34 11.76 1.17 5.22-1.17 11.76-18.15 11.76-18.15s5.72 8.58 8.58 8.24c2.02-.24 8.28-6.07 11.75-9.43 1.02-.99 2.74-.45 2.98.95 1.85 10.93 6.23 45.48-11.97 51.4z" class="B"/><path d="m443.15 740.171-1.47 4.46c-2.98.61-6.57.95-10.89.84-13.14-.34-19.38-8.22-22.18-13.94l1.03-3.45s11.84 19.15 33.51 12.09z" class="O"/><path d="M5.12 1259.521s30.07-2.35 34.94-4.87 14.11-1.85 23.85-3.36 18.48-12.94 21.5-21.17-2.86-16.8-2.86-16.8 12.43-.5 18.14 5.71c5.71 6.22 1.51 27.38-6.3 32.59s-24.11 10.08-32.17 9.91-9.41 2.56-17.47 4.03c-8.07 1.47-28.05.13-30.41-.84-2.34-.96-9.22-5.2-9.22-5.2z" class="H"/><path d="M.01 1246.781c-.4 4.4 11.21 8.44 24.32 6.55s16.13-4.28 18.9-4.66 13.1-.76 24.82-4.66c11.72-3.91 13.23-16.76 13.1-22.05s-7.18-8.32-14.49-5.17-17.39 13.73-22.43 15.62-10.33-1.76-23.31.63c-12.97 2.4-20.53 9.58-20.91 13.74z" fill="#80b5d6"/><path d="M492.4 74.491s-.54 27.33-22.73 30.3c-22.18 2.97-38.42-13.26-38.42-13.26 13.55-9.54 15.72-23.15 14.98-37.78 8.3 6.67 17.71-4.34 17.71-4.34 4.55 6.86 13.3 3.61 13.3 3.61.18 1.63 2.53 10.65 5.05 14.08 2.53 3.43 5.42 1.26 5.05-3.07-.33-3.97 3.29-16.91 7.03-11.48v.01c.35.48.68 1.12 1.01 1.91 4.04 9.73-2.98 20.02-2.98 20.02z" class="B"/><path d="M494.36 52.551c-3.73-5.43-7.36 7.51-7.03 11.48.37 4.33-2.52 6.5-5.05 3.07-2.52-3.43-4.87-12.45-5.05-14.08 0 0-8.75 3.25-13.3-3.61 0 0-9.42 11.01-17.71 4.34.75 14.63-1.42 28.24-14.98 37.78-9.56 6.22-18.41 5.5-22.36-17.59-3.97-23.08-4.52-38.24 3.42-46.89 7.94-8.66 22.56-5.05 22.56-5.05s13.17-22.18 31.74-22c18.58.18 29.36 39.45 27.76 52.55z" class="I"/><path d="m755.26 110.571 42.9 135.17c1.87 5.88-1.39 12.13-7.25 13.99l-381.03 120.94c-3.97 1.26-8.12.19-10.97-2.46-1.36-1.26-2.42-2.9-3.03-4.79l-42.89-135.17a11.15 11.15 0 0 1 7.25-13.99l381.03-120.94c5.86-1.86 12.12 1.39 13.99 7.25z" class="L"/><path d="M731.43 215.231c.15 9.39-5.82 18.18-15.25 21.17-9.41 2.99-19.36-.74-24.65-8.5l39.9-12.67zm16.42-24.68 1.85 5.84c.8 2.52-.59 5.2-3.11 6l-74.84 23.75c-2.52.8-5.2-.59-6-3.11l-1.85-5.84c-.8-2.51.59-5.19 3.11-5.99l3.51-1.11-6.02-18.97c-5.35-16.85 2.51-34.73 17.77-42.48l-1.27-4.01a4.11 4.11 0 0 1 2.67-5.16l3.2-1.02a4.11 4.11 0 0 1 5.16 2.67l1.27 4.01c16.94-2.48 33.67 7.61 39.02 24.46l6.02 18.97 3.51-1.11c2.52-.8 5.2.59 6 3.1z" class="D"/><g fill="#d3ddf4"><path d="m795.31 236.751 2.85 8.99c1.87 5.88-1.39 12.13-7.25 13.99l-381.03 120.94a11.14 11.14 0 0 1-13.99-7.25l-2.85-8.99 402.27-127.68z"/><path d="M499.47 180.061c5.84 71.84-38.27 140.8-109.91 163.53l-2.86.88 9.19 28.95c.6 1.89 1.66 3.52 3.03 4.79.5-.14.99-.3 1.49-.46 90.56-28.74 145.27-117.73 133.93-208.76l-34.87 11.07zm-24.67 7.84c2.16 58.32-34.49 113.27-92.82 131.78l-2.87.86-26.12-82.29a11.15 11.15 0 0 1 7.25-13.99l114.56-36.36z"/></g><path d="m637.69 178.061-84.08 26.69a2.672 2.672 0 0 0-1.74 3.36l.85 2.68a2.672 2.672 0 0 0 3.36 1.74l84.08-26.69a2.672 2.672 0 0 0 1.74-3.36l-.85-2.68a2.672 2.672 0 0 0-3.36-1.74zm3.92 19.4-31.47 9.99c-.83.26-1.3 1.16-1.03 1.99l.28.87c.26.83 1.16 1.3 1.99 1.03l31.47-9.99c.7-.22 1.09-.98.87-1.68l-.43-1.34c-.22-.71-.97-1.1-1.68-.87zm3.71 11.66-31.47 9.99c-.83.26-1.3 1.16-1.03 1.99l.28.87c.26.83 1.16 1.3 1.99 1.03l31.47-9.99c.7-.22 1.09-.98.87-1.68l-.43-1.34a1.35 1.35 0 0 0-1.68-.87zm4.85 9.67-51.34 16.29c-.7.22-1.09.98-.87 1.68l.43 1.34c.22.7.98 1.09 1.68.87l51.34-16.29c.7-.22 1.09-.98.87-1.68l-.43-1.34a1.35 1.35 0 0 0-1.68-.87z" class="D"/></g><circle cx="747.54" cy="108.101" r="21.8" class="F"/><g class="C"><path d="m757.2 115.851-13.09 4.15-1.09-3.42 4.13-1.31-3.29-10.36-4.13 1.31-1.02-3.2c.63-.2 1.23-.43 1.78-.69.56-.26 1-.54 1.32-.85.39-.36.64-.76.76-1.18s.11-.9-.02-1.44l4.36-1.38 5.15 16.23 4.04-1.28 1.1 3.42z" class="E"/><path d="M576.71 305.011s.41 6.53 0 7.42c-.41.88-18.81 8.19-19.94 10.46s2.77 6.05 6.68 6.8c3.91.76 11.03-3.19 11.59-2.27 1.39 2.27 2.52 6.68 3.4 6.8s19.89 2.14 22.48-10.58c2.59-12.73-.55-11.82-1.25-21.91-.7-10.1-22.96 3.28-22.96 3.28z" class="B"/><path d="M572.63 294.811s1.52 8.29 3.29 9.81c1.76 1.51 11.59.76 17.64 0s7.18-4.28 7.31-5.67 0-6.6 0-6.6l-25.58-.96-2.66 3.42z" class="M"/><path d="M554.08 64.141c7.7 2.02 13.95 7.66 16.78 15.1 12.24 32.22 23.85 111.71 25.89 123.93 2.35 14.11 8.56 83.63 6.55 87.33-2.02 3.7-28.89 11.09-36.29 0-7.39-11.09-17.97-77.25-20.32-84.64s-26.54-110.99-26.54-110.99c3.57-19.81 9.06-37.25 33.93-30.73z" class="G"/><path d="M407.77 201.051c6.24-3.75 11.88 10.1 11.49 13.79-.4 3.69-2.79 5.73-5.53 4.39s-12.77-14.08-5.96-18.18zm-13.51 1.87c4.35-2.63 14.18 14.54 13.6 17.21-.59 2.67-2.47 6.2-5.94 4.53s-11.08-10.13-12.04-13.17c-.95-3.05 1.34-6.73 4.38-8.57zm-11.08 11.06c5.12-1.39 8.56 7.53 8.61 9.63s-1.47 4.64-4.48 3.65-8.16-6.47-8.4-8.97 2.47-3.82 4.27-4.31zm-13.15 5.05c3.54-2.35 5.75-.96 6.11.79.36 1.74-1.57 4.48-4.42 4.66s-4.35-3.68-1.69-5.45z" class="B"/><path d="m1240.77 372.291-28.16 230.81c-1.08 8.88-9.16 15.19-18.03 14.11l-424.8-51.84a16.18 16.18 0 0 1-14.11-18.03l28.16-230.81a16.18 16.18 0 0 1 18.03-14.11l424.8 51.84a16.18 16.18 0 0 1 14.11 18.03z" class="L"/><g class="D"><use xlink:href="#D"/><path d="m1048.27 388.181-4.44 36.4c-.33 2.74-2.83 4.69-5.57 4.36l-71.48-8.72a5.003 5.003 0 0 1-4.36-5.57l5.59-45.84a2.497 2.497 0 0 1 2.78-2.18l17.97 2.19a3.88 3.88 0 0 1 2.99 2.1l1.64 3.27a4.98 4.98 0 0 0 3.86 2.72l46.65 5.69a5.02 5.02 0 0 1 4.37 5.58z"/><use xlink:href="#D" x="282.68" y="34.49"/><path d="m893.57 480.401-4.44 36.4c-.33 2.74-2.83 4.69-5.57 4.36l-71.48-8.72a5.003 5.003 0 0 1-4.36-5.57l5.59-45.84a2.497 2.497 0 0 1 2.78-2.18l17.97 2.19a3.88 3.88 0 0 1 2.99 2.1l1.64 3.27a4.98 4.98 0 0 0 3.86 2.72l46.65 5.69c2.76.35 4.71 2.84 4.37 5.58zm141.34 17.25-4.44 36.4c-.33 2.74-2.83 4.69-5.57 4.36l-71.48-8.72a5.003 5.003 0 0 1-4.36-5.57l5.59-45.84a2.497 2.497 0 0 1 2.78-2.18l17.97 2.19a3.88 3.88 0 0 1 2.99 2.1l1.64 3.27a4.98 4.98 0 0 0 3.86 2.72l46.65 5.69c2.75.34 4.71 2.84 4.37 5.58zm141.34 17.25-4.44 36.4c-.33 2.74-2.83 4.69-5.57 4.36l-71.48-8.72a5.003 5.003 0 0 1-4.36-5.57l5.59-45.84a2.497 2.497 0 0 1 2.78-2.18l17.97 2.19a3.88 3.88 0 0 1 2.99 2.1l1.64 3.27a4.98 4.98 0 0 0 3.86 2.72l46.65 5.69c2.75.34 4.71 2.83 4.37 5.58z"/></g><path d="m1213.34 597.101-.73 6c-1.08 8.88-9.16 15.19-18.03 14.11l-424.8-51.84a16.18 16.18 0 0 1-14.11-18.03l.73-6 456.94 55.76z" fill="#d3ddf4"/></g><circle cx="797.45" cy="280.611" r="7.48" class="F"/><g class="D"><circle cx="821.04" cy="283.491" r="7.48"/><circle cx="844.63" cy="286.371" r="7.48"/></g><g class="C"><path d="M933.44 263.671c.93-44.48 1.72-85.37-7.5-110.12-1.26-3.37-4.65-5.46-8.24-5.18l-21.5 1.65c-3.77.29-6.74-3.16-5.89-6.84 4.6-19.95 17.12-75.05 21.36-102.4.81-5.21 6.73-7.84 11.13-4.94 19.08 12.59 62.19 43.6 93.61 85.51 2.32 3.09.55 7.56-3.25 8.27l-8.19 1.53c-4.71.88-7.65 5.6-6.37 10.22 6.28 22.68 21.48 85.62 10.6 129.86l-75.76-7.56zm-6.35 27.3 75.76 7.56 2.49-11.26-75.77-7.56-2.48 11.26z" class="F"/><path d="M618.12 550.031v26.33c0 3.91-5.1 6.57-7.99 4.17-17.65-14.7-56.91-54.52-37.27-104.97 24.97-64.13 144.74-67.76 162.3-20.76s-8.19 78.81-48.77 89.11c-26.57 6.74-47.62 2.83-58.99-.67-4.29-1.34-9.28 2.32-9.28 6.79z" class="L"/><path d="M263.65 1267.081h331.47s-13.86-72.49-73.94-71.56-55.65 31.77-96.37 45.37-46.76-22.69-74.99-23.19c-28.21-.51-36.78 40.81-86.17 49.38zm503.49 0c34.26-52.91 62.32-62.49 79.28-53.42s8.98 37.29 32.37 41.33c23.4 4.03 51.62-27.65 81.35-27.18s22.68 35.17 32.25 39.24l-225.25.03z" class="G"/><path d="m282.3 437.001 2.37-22.98 26.36 10.34-28.73 12.64z" class="F"/><path d="M71.14 931.941c7.66-7.21 14.62.05 12.1 4.31-2.53 4.26-20.67 3.75-12.1-4.31z" class="P"/><path d="M1151.66 918.841c8.57-3.02 11.59 3.53 3.53 5.54s-12.1-2.52-3.53-5.54z" class="D"/><path d="m1313.93 550.681 3.53 21.67 25.7-14.11-10.58-12.6-18.65 5.04z" class="G"/><path d="m1076.87 1203.191 4.67 18.48 6.62 14.67 18.31-2.85 4.76-18.29-1.23-24.22-33.13 12.21z" class="B"/><path d="M761.76 1184.961v.01c-.22 1.11-.5 2.07-.85 2.82-2.52 5.37-14.28 14.1-30.74 11.08-16.46-3.01-24.87-15.96-25.87-22.17-1-6.22-3.53-3.19-15.29-9.92-11.76-6.72-24.35-42.17-22.18-52.24.31-1.46.79-2.89 1.4-4.29.01-.04.04-.09.05-.13 3.67-8.23 12.2-14.79 22.06-12.22 5.15 1.34 12.94 9.25 21.15 18.04 10.27 11 21.15 23.4 28.24 26.08l22.68 23.58c.01.02.76 12.47-.65 19.36z" class="G"/><path d="M761.76 1184.981c-.22 1.11-.5 2.07-.85 2.82-2.52 5.37-14.28 14.1-30.74 11.08-16.46-3.01-24.87-15.96-25.87-22.17-1-6.22-3.53-3.19-15.29-9.92-11.76-6.72-24.35-42.17-22.18-52.24a22.01 22.01 0 0 1 1.46-4.42c.23 9.96 10.65 41.23 18.55 49.61s17.64 7.88 18.64 10.57 12.17 20.89 24.2 24.86c12 3.99 27.4-4.62 32.08-10.19z" class="H"/><path d="M711.5 1115.961c-3.72 11.98-34.08 9.17-42.75-1.65l-.52-4.04c.01-.04.04-.09.05-.13 3.67-8.23 12.2-14.79 22.06-12.22 5.16 1.33 12.95 9.24 21.16 18.04z" fill="#d9ffd9"/><path d="M707.66 1134.281c-.33 0-.65-.16-.84-.46a.993.993 0 0 1 .3-1.38c6.35-4.11 11.92-2.58 12.16-2.52a1.01 1.01 0 0 1 .69 1.24c-.15.53-.71.83-1.24.69-.2-.05-4.96-1.32-10.52 2.27-.18.11-.37.16-.55.16zm6.51 10.96c-.31 0-.63-.15-.82-.43a.994.994 0 0 1 .24-1.39c6.68-4.69 13.5-4.23 13.79-4.21.55.04.96.52.92 1.07s-.5.97-1.07.92c-.07-.01-6.42-.41-12.49 3.85a.93.93 0 0 1-.57.19zm50.74 34.18c-6.06 0-13.17-.98-15.13-1.4a1.01 1.01 0 0 1-.77-1.19c.12-.54.64-.89 1.19-.77 5.05 1.08 18.83 2.21 21.86.43-1.66-1.02-8.66-2.34-14.79-3.02a1 1 0 0 1-.88-1.1c.06-.55.54-.93 1.1-.88 7.23.8 16.01 2.24 16.74 4.57.09.29.22 1.04-.57 1.74-1.38 1.22-4.85 1.62-8.75 1.62z" class="J"/><path d="m776.11 1157.431-23.8 14.23s-10.88 3.19-17.34-3.11c-8.49-8.29-6.48-16.04-5.64-17.39.84-1.34 27.21-23.18 27.21-23.18l19.57 29.45z" class="B"/><path d="M1126.87 1259.031v.01c-.28 2.85-.81 4.93-1.74 5.68-4.51 3.7-22.86 2.52-28.53 0-5.68-2.51-16.96-1.76-23.03.52-4.86 1.8-14.36 1.8-25.21 1.8-10.86 0-28.71-1.97-35.88-10.72-2.51-3.05-1.83-5.28.37-6.88.54-.4 1.16-.75 1.85-1.07 4.6-2.13 12.15-2.72 15.62-2.63 1.89.05 6.3-1.91 11.66-4.8 12.09-6.53 29.08-17.8 33.24-21.41 5.89-5.1 10.34 11.76 16.01 13.43 5.69 1.69 17.37-18.3 22.87-19.32 5.51-1 9.69 8 10.34 9.71.55 1.39 3.52 24.48 2.43 35.68z" class="G"/><path d="M1126.87 1259.051c-.28 2.85-.81 4.93-1.74 5.68-4.51 3.7-22.86 2.52-28.53 0-5.68-2.51-16.96-1.76-23.03.52-4.86 1.8-14.36 1.8-25.21 1.8-10.86 0-28.71-1.97-35.88-10.72-2.51-3.05-1.83-5.28.37-6.88.13-.1.27-.19.42-.3a12.73 12.73 0 0 1 1.43-.77c7.79 8.47 18.78 12.66 31.98 12.66 3.36 0 7.3-.26 11.45-.67 13.11-1.3 28.23-4.08 33.43-4.71 6.85-.84 27.66 6.59 35.28 3.39h.03z" class="H"/><path d="M1058.14 1260.371c-4.15.41-8.09.67-11.45.67-13.2 0-24.19-4.19-31.98-12.66 4.6-2.13 12.15-2.72 15.62-2.63 1.89.05 6.3-1.91 11.66-4.8 10.72-1.25 16.54 15.89 16.15 19.42z" fill="#d9ffd9"/><path d="M1061.45 1238.691a1.01 1.01 0 0 1-.97-.75c0-.01-.44-1.54-1.94-2.39-1.25-.71-2.91-.78-4.93-.22a.997.997 0 1 1-.54-1.92c2.58-.72 4.76-.57 6.5.43 2.23 1.28 2.82 3.52 2.85 3.61a.996.996 0 0 1-.72 1.22l-.25.02zm7.55-5.88c-.4 0-.78-.25-.93-.64-.29-.75-1.35-2.8-2.79-3.26-.68-.21-1.4-.06-2.2.47a1.001 1.001 0 1 1-1.11-1.67c1.32-.88 2.64-1.12 3.92-.71 2.66.85 3.99 4.3 4.05 4.45.2.52-.06 1.09-.58 1.29-.13.04-.25.07-.36.07zm54-11.44a1.02 1.02 0 0 1-.78-.37c-.35-.43-.28-1.06.15-1.41 6.17-4.97 12.61-11.57 12.25-13.55-.01-.07-.04-.21-.41-.33-4.03-1.34-12.29 6.56-15.13 9.72a.998.998 0 1 1-1.49-1.33c1.13-1.26 11.26-12.28 17.25-10.28.97.32 1.59.99 1.75 1.88.73 4.06-9.74 12.86-12.97 15.46-.18.13-.4.21-.62.21z" class="J"/><path d="M1077.65 331.581s-9.19-16.12-17.67-16.79-21.42-3.57-31.68 2.01-13.61 11.6-13.61 11.6l21.94 2.68s-.15 6.69 0 9.15c.15 2.45 6.31 4.02 9.81 2.45 3.5-1.56 7.52-8.03 7.52-8.03l8.33 9.47 13.18-7.24 2.18-5.3z" class="B"/><g class="H"><path d="m1035.71 768.961 2.56 1.47-1.37 1.44-1.19-2.91z"/><path d="M1115.88 1188.971c-2.02 3.53-31.24 17.63-41.83 13.6-9.26-3.53-72.03-169.17-91.39-225.29-2.78-8.07-4.68-13.88-5.37-16.61-4.52-17.65 37-137.4 52.62-181.39l5.8-16.17 108.89-23.06 15.63 38.69s-47.88 125.48-58.46 144.13c-10.59 18.65-19.66 30.74-20.16 33.77s36.28 228.8 34.27 232.33z"/></g><path d="M1201.39 789.311s-33.94-.67-57.79-10.07c-23.85-9.42-48.71-24.86-89.45-19.01 0 0 .02-.01.05-.02 17.1-8.24 41.84-19.75 68.73-27.84 17.32-5.23 31.14-6.95 41.67-7.04 1.83-.03 3.57.01 5.21.07.24 4.13 1.41 8.82 3.15 13.74 1.79 5.06 4.19 10.36 6.85 15.55 9.28 18.02 21.58 34.62 21.58 34.62z" class="G"/><path d="M1172.96 739.141c-42.21-7.46-116.55 20.24-118.76 21.07 17.1-8.24 41.84-19.75 68.73-27.84 17.32-5.23 31.14-6.95 41.67-7.04 1.83-.03 3.57.01 5.21.07.24 4.13 1.41 8.82 3.15 13.74z" class="M"/><path d="M1179.82 754.691c-5.24-10.23-9.52-20.92-10.01-29.29 13.94.59 20.74 4.04 21.14 4.26.01.01.03.01.03.01 1.88 8.86-6.76 20.02-11.16 25.02z" class="J"/><path d="M1067.83 498.021c.17 9.4-11.26 12.26-11.26 12.26-.87 2.15-1.48 12.57-1.74 17.59-8.14 1.57-19.06 4.25-26.08 7.46l1.03-19.57.25-4.64c-7.56-1.68-18.14-5.38-16.46-16.46.85-5.59 8.56-13.57 16.01-20.11 7.31-6.43 14.4-11.47 14.4-11.47s-3.37 28.88 8.73 27.21c5.86-.81 14.95-1.67 15.12 7.73z" class="B"/><path d="M1072.93 537.071c-5.22-.39-10.16.35-14 1.02-19.09 3.34-34.71 7.97-46.17 14.45 3.08-9.03 4.1-11.77 16-17.21 7.02-3.21 17.94-5.89 26.08-7.46 5.67-1.09 9.99-1.66 10.77-1.51 1.88.38 7.32 10.71 7.32 10.71z" class="J"/><path d="M1190.97 729.681s-.01 0-.03-.01c-.4-.22-7.2-3.68-21.13-4.27-1.64-.06-3.38-.1-5.21-.07-10.53.09-24.35 1.81-41.67 7.04-26.92 8.1-51.68 19.62-68.78 27.86h-.02c-12.67 6.1-21.14 10.4-23.17 10.19-4.8-.51-13.86-18.4-14.12-23.95-.13-2.97-4.92-15.68-9.32-26.81l-7.31-18.03s-9.06 12.85-30.52 11.09c-21.47-1.77-43.06-28.24-57.17-44.66-14.11-16.41-33.52-48.84-32-56.14.15-.69.39-1.41.71-2.17h.02c2.51-5.79 10.12-13.13 16.44-15.87 1.63-.71 3.16-1.11 4.5-1.11 7.31 0 59.22 51.9 59.22 51.9s24.44-58.96 33.26-75.08c3.7-6.76 9.81-12.38 18.09-17.05 11.46-6.48 27.08-11.12 46.17-14.46 3.84-.67 8.78-1.4 14-1.01 11.11.82 23.41 6.73 28.67 29.16 3.95 16.86 25.87 109.69 53.83 117.25 27.98 7.56 35.54 46.2 35.54 46.2z" class="P"/><path d="M1026.83 653.721c-.34 1.37-11.6 46.47-19.31 65.94l-7.31-18.03c10.55-11.92 26.13-46.83 26.62-47.91zm-129.14-59.84c-6.32 2.74-13.94 10.08-16.45 15.87h-.01s-6.39-7.15-6.26-11.31c.03-.8.41-1.76 1.04-2.78 2.06-3.39 6.7-7.52 9.38-9.18.73-.46 1.33-.73 1.67-.76 2.03-.14 10.63 8.16 10.63 8.16z" class="J"/><path d="M885.39 586.471c-2.68 1.66-7.32 5.8-9.38 9.18-2.68-3.64-35.82-10.2-39.46-12.97-3.66-2.77-.76-7.06 2.77-8.44 3.53-1.39 22.42-1.26 24.82-1.52 2.4-.24 3.53-16.13 8.06-16.25s4.53 13.36 5.16 16.51c.64 3.15 8.03 13.49 8.03 13.49z" class="B"/><path d="M977.29 960.671c.69 2.73 2.59 8.54 5.37 16.61l-26.12 19.53-39.73 30.38c-8.07 7.06-124.48 134.06-135.57 132.54-11.09-1.5-32.25-34.27-30.24-44.34 2.02-10.08 115.91-160.27 121.46-167.83 4.32-5.89 102.29-109.84 145.56-155.69l11.89-12.59c-15.62 43.99-57.14 163.74-52.62 181.39z" class="H"/><path d="m1131.17 542.711-52.75-101.81s-19.14-79.5-17.14-84.67c.45-1.17 1.79-2.41 3.68-3.66 5.6-3.66 16.06-7.28 22.72-9.02 2.6-.7 4.61-1.09 5.53-1.09 4.03 0 42 108.19 42.67 120.62.66 12.42-4.71 79.63-4.71 79.63z" class="P"/><path d="M1087.68 343.551c-6.66 1.74-17.12 5.36-22.72 9.02-1.33-2.37-3.08-5.8-3.08-7.42 0-2.63 14.44-13.95 16.99-13.95 1.93 0 6.63 8.31 8.81 12.35z" class="J"/><path d="m1056.5 510.291-26.72 5.47.25-4.64c15.62.84 25.52-.68 26.47-.83z" class="O"/><path d="M1223.22 727.491c-26.2-5.37-17.13-67.86-41.65-67.86-24.54 0-8.75 39.64-46.37 51.4-37.63 11.76-60.48-26.54-67.37-70.55s-13.78-98.14-13.1-109.87c.03-.39.04-.77.05-1.16 0-.15.01-.32.01-.48v-.08c.21-4.47.84-16.31 1.78-18.61 0 0 11.42-2.86 11.26-12.26-.17-9.4-9.26-8.54-15.12-7.73-12.09 1.67-8.73-27.21-8.73-27.21s-7.08 5.05-14.4 11.48c0 0-2.06-23.9 21.46-34.99s47.2-3.64 56.27 17.5c9.08 21.13 12.44 82.29 52.42 117.56 39.98 35.28 105.83 61.15 106.51 98.1.67 36.96-16.81 60.14-43.02 54.76z" class="I"/><path d="M1065.65 463.081s-1.85-13.94-3.02-13.94-10.25 11.42-10.08 13.94 13.1 2.02 13.1 2.02v-2.02zm3.44 1s7.98-3.28 10-2.69-6.47 15.62-8.32 15.71c-1.85.08-2.94-10.67-2.94-11.09 0-.41 1.26-1.93 1.26-1.93z" class="F"/><path d="M1065.65 461.901c2.21-.8 3.88 1.12 4.04 1.95s-1.77 4.94-3.37 4.94-2.1-.42-2.18-1.51c-.09-1.1.58-5.04 1.51-5.38z" class="K"/><path d="M977.29 960.671c.69 2.73 2.59 8.54 5.37 16.61l-26.12 19.53c-.33-17.51-.61-42.72.39-47.73 1.29-6.49 45.9-118.99 61.09-157.21l11.89-12.59c-15.62 43.99-57.14 163.74-52.62 181.39z" class="I"/><path d="M605.69 493.881v26.33c0 3.91 4.76 5.83 7.46 3 16.49-17.27 53.16-62.83 34.81-110.41-23.32-60.49-135.19-46.64-151.59 2.92s7.65 77.62 45.55 81.99c24.82 2.86 44.48-4.12 55.09-9.28 4.02-1.95 8.68.99 8.68 5.45z" class="D"/></g><g class="E"><ellipse cx="815.01" cy="766.71" rx="12.98" ry="11.02" transform="rotate(-53.724 344.033 877.708)"/><ellipse cx="849.31" cy="766.71" rx="12.98" ry="11.02" transform="rotate(-53.724 378.333 877.708)"/><ellipse cx="883.61" cy="766.71" rx="12.98" ry="11.02" transform="rotate(-53.724 412.632 877.706)"/></g><defs><path id="B" d="m751.16 997.145 11.026 1.282-2.677 23.025-11.026-1.282z"/><path id="C" d="m635.837 987.023 7.46.867-1.433 12.327-7.46-.867z"/><path id="D" d="m906.93 370.931-4.44 36.4c-.33 2.74-2.83 4.69-5.57 4.36l-71.48-8.72a5.003 5.003 0 0 1-4.36-5.57l5.59-45.84a2.497 2.497 0 0 1 2.78-2.18l17.97 2.19a3.88 3.88 0 0 1 2.99 2.1l1.64 3.27a4.98 4.98 0 0 0 3.86 2.72l46.65 5.69c2.75.35 4.7 2.84 4.37 5.58z"/></defs></svg>