<svg xmlns="http://www.w3.org/2000/svg" xmlns:xlink="http://www.w3.org/1999/xlink" viewBox="0 0 1469 1560" fill-rule="evenodd" stroke-linejoin="round" stroke-miterlimit="2"><style>.B{fill-rule:nonzero}.C{fill:#fff}.D{fill:#ffae04}.E{fill:#df9107}.F{fill:#c0e3ff}.G{fill:#bef4be}.H{fill:#91c191}.I{fill:#0a6adb}.J{fill:#ee6f57}.K{fill:#a8dda8}.L{fill:#82af82}.M{fill:#f29b1c}.N{fill:#e9eefb}.O{fill:#53a4f4}.P{fill:#0c63aa}.Q{fill:#ffce78}.R{fill:#231f20}.S{fill:#c44e3d}</style><g transform="translate(-262.95 -177.418)"><g class="B R"><path d="m796.67 375.1-.98-.2a14.72 14.72 0 0 1 .45-1.83l.96.27-.43 1.76z"/><path d="m796.09 378.3-.99-.15a35.08 35.08 0 0 1 .59-3.27l.98.2-.58 3.22z"/></g><path d="m1601.86 750.48-85.85 474.5c-1.82 10.08-12.64 15.76-21.98 11.53L718.46 884.97a18.95 18.95 0 0 1-10.82-20.63l87.95-486.13v-.01l.58-3.22.43-1.77c2.61-8.48 12.18-12.98 20.51-9.2l763.56 346.1c15.49 7 24.2 23.65 21.19 40.37z" class="B O"/><path d="M740.93 851.59 1482 1188.65c8.72 3.95 18.82-1.35 20.53-10.77l76.16-420.98c2.83-15.62-5.33-31.16-19.78-37.71L829.06 387.23c-8.3-3.76-17.93 1.29-19.56 10.26l-78.67 434.85a17.67 17.67 0 0 0 10.1 19.25z" class="B C"/><path d="m1628.49 738.15-85.84 474.51-.26 1.16a1.31 1.31 0 0 1-.06.27c-7.1 31.61-25.12 33.38-48.3 22.42 9.33 4.23 20.16-1.45 21.98-11.53l85.85-474.5c3.02-16.72-5.7-33.37-21.18-40.38L817.12 364c-8.33-3.77-17.9.72-20.51 9.2 7.94-29.97 34.76-25.34 43.97-22.57 27.97 8.43 766.73 347.13 766.73 347.13 15.48 7.03 24.21 23.67 21.18 40.39z" class="B I"/><path d="M1487.09 1326.21c0 2.86-1.24 5.72-3.84 7.67l-334.77 252.2a77.22 77.22 0 0 1-78.28 8.61l-127.99-58.01-.06-.03-618.86-280.51c-3.59-1.63-5.57-4.97-5.77-8.42-.17-3.1 1.08-6.29 3.92-8.41l13.76-10.37 15.22-11.46 7.13-5.37 148.42-111.8 175.01-131.83a24.263 24.263 0 0 1 24.61-2.7l775.86 351.67c3.4 1.55 5.33 4.66 5.6 7.92.03.28.04.56.04.84z" class="B O"/><g class="I B"><path d="M580.79 1138.34c-.04.06-.06.11-.09.16-.02.04-.03.07-.04.1l-1.27 2.4-1.16 2.09-.15.26-.68 1.17-.26.44c-.07.13-.16.27-.25.4l-.85 1.4c-.01.02-.02.04-.05.06l-1.23 1.94-1.69 2.5-1.76 2.44-1.44 1.89c-.2.29-.42.55-.64.82l-1.03 1.27-.73.89-.3.36-1.56 1.81-1.91 2.11-.43.45-1.46 1.52-.69.7-.91.89-1.22 1.18-1.74 1.61-2.51 2.21-4.52 3.62-.27.22h-.01c-.04.02-.07.05-.1.07l-68.68 51.62a79.303 79.303 0 0 1-37.6 15.27 78.65 78.65 0 0 1-27-1.18 78.79 78.79 0 0 1-15.63-5.14 2.14 2.14 0 0 0-.22-.1l-46.54-21.09 148.42-111.8 78.2 35.44z" fill-opacity=".25"/><path d="M951.01 1359.08c0 .86-.37 1.72-1.16 2.31l-100.8 75.94a23.237 23.237 0 0 1-23.57 2.59l-224.9-101.94a2.94 2.94 0 0 1-1.74-2.53 2.93 2.93 0 0 1 1.18-2.53l108.26-81.55a7.307 7.307 0 0 1 7.41-.81l233.62 105.89c1.03.47 1.61 1.4 1.69 2.38 0 .08.01.17.01.25zm536.08-32.87v31.21l-.01.39c-.11 2.73-1.35 5.42-3.83 7.28l-334.78 252.2a77.22 77.22 0 0 1-78.28 8.61l-746.91-338.56c-3.55-1.6-5.53-4.89-5.77-8.3l-.02-.68v-30.64h.02c.19 3.45 2.17 6.79 5.77 8.42l746.91 338.56a77.22 77.22 0 0 0 78.28-8.61l334.78-252.2a9.51 9.51 0 0 0 3.84-7.68z"/><use xlink:href="#B"/><use xlink:href="#C"/><path d="m895.45 1119.89-53.33-24.24a4.13 4.13 0 0 1-.77-7.06l11.21-8.42a4.14 4.14 0 0 1 4.19-.46l53.33 24.24a4.13 4.13 0 0 1 .77 7.06l-11.21 8.42a4.11 4.11 0 0 1-4.19.46zm82.77 37.62-53.33-24.24a4.13 4.13 0 0 1-.77-7.06l11.21-8.42a4.14 4.14 0 0 1 4.19-.46l53.33 24.24a4.13 4.13 0 0 1 .77 7.06l-11.21 8.42a4.14 4.14 0 0 1-4.19.46z"/><use xlink:href="#B" x="331.07" y="150.46"/><use xlink:href="#C" x="331.07" y="150.46"/><path d="m1226.52 1270.35-53.33-24.24a4.13 4.13 0 0 1-.77-7.06l11.21-8.42a4.14 4.14 0 0 1 4.19-.46l53.33 24.24a4.13 4.13 0 0 1 .77 7.06l-11.21 8.42a4.113 4.113 0 0 1-4.19.46z"/><use xlink:href="#B" x="579.37" y="263.3"/><use xlink:href="#C" x="579.37" y="263.3"/><use xlink:href="#D"/><path d="m773.6 1211.11-52.13-23.69c-3.26-1.48-3.74-5.91-.88-8.06l10.15-7.63a4.685 4.685 0 0 1 4.78-.52l52.13 23.69c3.26 1.48 3.74 5.91.88 8.06l-10.15 7.63a4.708 4.708 0 0 1-4.78.52z"/><use xlink:href="#E"/><path d="M939.13 1286.34 887 1262.65c-3.26-1.48-3.74-5.91-.88-8.06l10.15-7.63a4.685 4.685 0 0 1 4.78-.52l52.13 23.69c3.26 1.48 3.74 5.91.88 8.06l-10.15 7.63a4.73 4.73 0 0 1-4.78.52zm82.77 37.61-52.13-23.69c-3.26-1.48-3.74-5.91-.88-8.06l10.15-7.63a4.685 4.685 0 0 1 4.78-.52l52.13 23.69c3.26 1.48 3.74 5.91.88 8.06l-10.15 7.63a4.685 4.685 0 0 1-4.78.52z"/><use xlink:href="#E" x="248.3" y="112.84"/><use xlink:href="#D" x="579.37" y="263.3"/><path d="m732.58 1119.17-116.5-52.94c-2.97-1.35-3.42-5.39-.81-7.36l10.89-8.19a4.303 4.303 0 0 1 4.37-.48l116.5 52.94c2.97 1.35 3.42 5.39.81 7.36l-10.89 8.19a4.306 4.306 0 0 1-4.37.48zm81.14 36.88-52.97-24.07c-2.97-1.35-3.42-5.39-.81-7.36l10.89-8.19a4.303 4.303 0 0 1 4.37-.48l52.98 24.07c2.97 1.35 3.42 5.39.81 7.36l-10.89 8.19a4.324 4.324 0 0 1-4.38.48zm82.77 37.61-52.97-24.07c-2.97-1.35-3.42-5.39-.81-7.36l10.89-8.19a4.303 4.303 0 0 1 4.37-.48l52.97 24.07c2.97 1.35 3.42 5.39.81 7.36l-10.89 8.19a4.283 4.283 0 0 1-4.37.48z"/><use xlink:href="#F"/><path d="m1062.02 1268.89-52.97-24.07c-2.97-1.35-3.42-5.39-.81-7.36l10.89-8.19a4.303 4.303 0 0 1 4.37-.48l52.97 24.07c2.97 1.35 3.42 5.39.81 7.36l-10.89 8.19a4.303 4.303 0 0 1-4.37.48zm82.77 37.62-52.97-24.07c-2.97-1.35-3.42-5.39-.81-7.36l10.89-8.19a4.303 4.303 0 0 1 4.37-.48l52.97 24.07c2.97 1.35 3.42 5.39.81 7.36l-10.89 8.19a4.33 4.33 0 0 1-4.37.48z"/><use xlink:href="#F" x="248.3" y="112.84"/><path d="m1346.45 1382.56-41.27 31.03a4.303 4.303 0 0 1-4.37.48l-104.79-47.62c-2.97-1.35-3.42-5.39-.81-7.36l10.89-8.19a4.303 4.303 0 0 1 4.37-.48l26.3 11.95c1.43.65 3.11.47 4.37-.48l26.3-19.77a4.303 4.303 0 0 1 4.37-.48l73.85 33.56c2.96 1.35 3.4 5.39.79 7.36zm-615.88-300.95-84.61-38.45c-2.75-1.25-3.16-4.98-.74-6.8l11.49-8.64a3.98 3.98 0 0 1 4.03-.44l84.61 38.45c2.75 1.25 3.16 4.98.74 6.8l-11.49 8.64a3.98 3.98 0 0 1-4.03.44zm82.77 37.61-53.66-24.38c-2.75-1.25-3.16-4.98-.74-6.8l11.49-8.64a3.98 3.98 0 0 1 4.03-.44l53.66 24.38c2.75 1.25 3.16 4.98.74 6.8l-11.49 8.64a3.937 3.937 0 0 1-4.03.44z"/><use xlink:href="#G"/><path d="m978.87 1194.45-53.66-24.39c-2.75-1.25-3.16-4.98-.74-6.8l11.49-8.64a3.98 3.98 0 0 1 4.03-.44l53.66 24.38c2.75 1.25 3.16 4.98.74 6.8L982.9 1194a3.96 3.96 0 0 1-4.03.45z"/><use xlink:href="#G" x="165.54" y="75.23"/><use xlink:href="#G" x="248.3" y="112.84"/><use xlink:href="#G" x="331.07" y="150.46"/><path d="m1361.75 1368.46-105.47-47.93c-2.75-1.25-3.16-4.98-.74-6.8l11.49-8.64a3.98 3.98 0 0 1 4.03-.44l105.47 47.93c2.75 1.25 3.16 4.98.74 6.8l-11.49 8.64a3.98 3.98 0 0 1-4.03.44zM591.77 1151.2l-9.01 6.78a5.347 5.347 0 0 1-5.42.59l-7.23-3.29-43.6-19.81c-3.69-1.68-4.24-6.69-1-9.12l9.01-6.78c.77-.58 1.67-.93 2.59-1.03a5.34 5.34 0 0 1 2.83.44l50.83 23.1c3.69 1.68 4.24 6.69 1 9.12z"/></g><path d="M581.07 1137.67c-.04.06-.34.78-.37.83-.02.04-.03.07-.04.1l-1.27 2.4-1.16 2.09-.15.26-.68 1.17-.26.44c-.07.13-.16.27-.25.4l-.85 1.4c-.01.02-.02.04-.05.06l-1.23 1.94-1.69 2.5-1.76 2.44-1.2 1.58-43.6-19.81c-3.69-1.68-4.24-6.69-1-9.12l9.01-6.78c.77-.58 2.26-1.62 3.18-1.72l43.37 19.82z" fill="#0c69c4" class="B"/><g class="I B"><use xlink:href="#H"/><path d="m1156.71 1421.87-50.83-23.1c-3.69-1.68-4.24-6.69-1-9.12l9.01-6.78a5.331 5.331 0 0 1 5.41-.59l50.83 23.1c3.69 1.68 4.24 6.69 1 9.12l-9.01 6.77a5.306 5.306 0 0 1-5.41.6z"/><use xlink:href="#H" x="579.37" y="263.3"/><path d="m1073.95 1384.26-381.9-173.56c-3.69-1.68-4.24-6.69-1-9.12l9.01-6.78a5.331 5.331 0 0 1 5.41-.59l381.9 173.56c3.69 1.68 4.24 6.69 1 9.12l-9.01 6.77a5.333 5.333 0 0 1-5.41.6zm-404.9-257.31-81.75-37.15c-3.7-1.68-4.25-6.71-1-9.15l8.98-6.75a5.345 5.345 0 0 1 5.43-.59l81.75 37.15c3.7 1.68 4.25 6.71 1 9.15l-8.98 6.75a5.363 5.363 0 0 1-5.43.59zm82.77 37.62-50.8-23.09c-3.7-1.68-4.25-6.71-1-9.15l8.98-6.75a5.345 5.345 0 0 1 5.43-.59l50.8 23.09c3.7 1.68 4.25 6.71 1 9.15l-8.98 6.75a5.365 5.365 0 0 1-5.43.59z"/><use xlink:href="#I"/><use xlink:href="#I" x="82.77" y="37.62"/><path d="m1000.12 1277.41-50.8-23.09c-3.7-1.68-4.25-6.71-1-9.15l8.98-6.75a5.345 5.345 0 0 1 5.43-.59l50.8 23.09c3.7 1.68 4.25 6.71 1 9.15l-8.98 6.75a5.363 5.363 0 0 1-5.43.59zm82.77 37.61-50.8-23.09c-3.7-1.68-4.25-6.71-1-9.15l8.98-6.75a5.345 5.345 0 0 1 5.43-.59l50.8 23.09c3.7 1.68 4.25 6.71 1 9.15l-8.98 6.75a5.345 5.345 0 0 1-5.43.59z"/><use xlink:href="#I" x="331.07" y="150.46"/></g><path d="m1005.66 335.94-73.35 405.4c-1 5.51-6.91 8.61-12.01 6.31l-16.7-7.57-.02-.01-219.85-99.65-2.71-1.23a15.995 15.995 0 0 1-9.14-17.4l72.29-399.53a10.61 10.61 0 0 1 14.81-7.77l240.04 108.79c4.86 2.2 7.59 7.41 6.64 12.66z" class="B N"/><path d="M883.89 522.42c-18.71-9.59-35.92-15.21-35.92-15.21l-38.65-12.96s-20.42-4.26-41.77-4.03c0 0-10.72-67.52 4.23-116.33 14.96-48.81 64.34-60.67 77.32-58.97 12.98 1.69 22.29 17.77 22.29 17.77s30.48-5.65 47.41 24.83c16.92 30.47 22.46 133.12-34.91 164.9z" fill="#2e353d" class="B"/><path d="m903.61 740.08-.02-.01-219.85-99.65c6.71-33.07 28.34-132.1 49.1-143.36 9.25-5.02 22.14-6.71 34.71-6.84 21.35-.23 41.77 4.03 41.77 4.03l38.65 12.96s17.21 5.61 35.92 15.21c21.11 10.82 44.14 26.7 46.61 45.31 4.66 35.13-26.89 172.35-26.89 172.35z" class="B J"/><path d="m1730.98 1115.1-120.06 181.08a29.88 29.88 0 0 1-37.23 10.7l39.34-65.96 84.16-141.13 13.68 6.2 20.11 9.11z" class="B D"/><path d="M1710.88 1105.98c-15.18 30.61-82.37 164.8-100.28 179.43-6.7 5.46-4.08-14.85 2.43-44.5l84.16-141.13 13.69 6.2z" class="B E"/><path d="M1721.35 1030.42c-10.08 30.71-64.93 194.09-110.75 254.99-5 6.64-9.89 12.06-14.59 15.97l-31.96-63.17-160.61-317.46-2.61-5.16 6.36-35.14a5.51 5.51 0 0 1 .26-.95 5.18 5.18 0 0 1 7.08-2.79l303.71 146.42a6.01 6.01 0 0 1 3.11 7.29z" class="B N"/><path d="m1680.08 1092.02-69.49 193.39c-5 6.64-9.89 12.06-14.59 15.97l-31.96-63.17 116.04-146.19zm-26.28-89.39-250.37-81.88-2.61-5.16 6.36-35.14a5.51 5.51 0 0 1 .26-.95l246.36 123.13z" fill="#d1d9e8" class="B"/><path d="M1680.08 1092.02c-.08 3.27-.76 6.5-2 9.56l-75.63 184.9-228.42-366.43 6.49-35.86c.7-3.9 4.9-6.11 8.52-4.47l256.73 116.37c3.23 1.46 5.99 3.72 8.03 6.52 1.41 1.88 2.46 4 3.14 6.3l22.05 74.69c.81 2.76 1.18 5.6 1.09 8.42z" class="B C"/><path d="M1622.19 1065.79 1406.95 959.7l-20.89 30.72 168.18 69.98 67.95 5.39z" class="B N"/><path d="m1680.08 1092.02-39.23-17.78 12.95-71.62c1.41 1.88 2.46 4 3.14 6.3l22.05 74.69a26.76 26.76 0 0 1 1.09 8.41z" class="B F"/><path d="m1337.88 915.74-45.81 253.19a12.403 12.403 0 0 0 7.08 13.5l274.53 124.44c10.97 4.97 23.69-1.65 25.92-13.48l37.45-199.02c2.22-11.81-3.92-23.62-14.87-28.58l-203.14-92.08-14.8-35.51a15.048 15.048 0 0 0-7.68-7.92l-46.35-21.01c-5.23-2.38-11.31.81-12.33 6.47z" class="B D"/><path d="M1423.36 1185.05c-3.45-1.98-6.53-5.85-8.41-11.13l-21.66-60.64c-3.77-10.56-1.36-22.79 5.4-27.31s15.29.39 19.07 10.95l14.83 41.51 84.45-56.44c6.76-4.52 15.29.39 19.07 10.95 3.77 10.56 1.35 22.79-5.4 27.31l-96.68 64.62c-3.39 2.25-7.22 2.16-10.67.18zm-189.26 101.26v226.42c0 5.39-2.53 10.46-6.84 13.69l-217.37 163.39-4.11 3.09-8.09 6.08-15.65 11.76c-4.38 3.29-10.64.16-10.64-5.32V1484.1c0-7.37 3.46-14.3 9.36-18.72l244.27-183.61c3.72-2.8 9.07-.13 9.07 4.54z" class="C B"/><g class="F B"><use xlink:href="#J"/><path d="M1234.1 1286.31v18.85l-262.7 197.47v-18.52c0-7.37 3.46-14.3 9.36-18.72l244.27-183.61c3.73-2.82 9.07-.15 9.07 4.53z"/></g><path d="M1234.1 1321.69v191.04c0 5.39-2.53 10.46-6.84 13.69l-217.37 163.39-4.11 3.09v-187.93c0-7.37 3.46-14.3 9.36-18.72l218.96-164.56z" class="B N"/><path d="M508.77 726.49c-.2-.08-.4-.18-.59-.29l.47-.88.17.08.38.19-.43.9zm43.48-4.11c-.37-.04-.69-.13-.97-.26l.35-.93.65.17.16.04-.19.98z" class="R B"/><path d="M597.34 573.72v82.26c0 4.34-2.04 8.42-5.51 11.02l-23.28 17.5-8.83 27.14c-1.19 3.42-2.22 6.14-3.53 8.38-.84 1.46-2.39 2.07-3.84 1.87 0 0-.02 0-.05-.01-.12-.03-.41-.1-.82-.22-.03-.01-.05-.01-.08-.02-.94-.36-1.76-1.1-2.2-2.17l-6.31-15.69-8.35 6.27-20.43 15.36a5.088 5.088 0 0 1-5 .69s-.06-.03-.18-.08c-.11-.07-.28-.14-.51-.25a5.115 5.115 0 0 1-2.67-4.54v-76.08c0-5.75 2.7-11.17 7.3-14.62l79.05-59.41c1.36-1.02 3.08-.79 4.18.21a3.12 3.12 0 0 1 1.06 2.39z" class="B D"/><path d="M551.41 721.65c-3.09-.84-12.83-3.84-15.65-8.78-.12-.21-.23-.41-.31-.62l-.89-2.2 8.35-6.27 6.31 15.69a3.846 3.846 0 0 0 2.19 2.18zm44.88-150.33c-1.09-1-2.81-1.22-4.18-.21l-79.05 59.41c-4.6 3.45-7.3 8.87-7.3 14.62v76.08a5.1 5.1 0 0 0 2.67 4.54c-2.24-1.04-9.48-4.46-14.01-7.37-.02 0-.04-.02-.06-.03-1.4-.9-2.37-2.46-2.37-4.37v-76.08c0-5.75 2.7-11.17 7.3-14.62l73.6-55.32c3.84-2.89 8.88-3.79 13.41-2.21 4.33 1.53 8.53 4 9.99 5.56z" class="E B"/><g fill="#ffa78f" class="B"><path d="M915.97 457.01c-4.23 15.8-22.28 10.72-22.28 10.72s-12.35 20.53-36.68 23.21c-7.29.8-15.67-.01-25.12-3.46-7.81-2.86-14.21-6.71-19.46-11.07v-.01c-22.24-18.49-23.72-46.2-23.72-46.2-12.87-5.08-18.33-25.68-9.88-34.15 8.47-8.47 13.26 0 13.26 0s14.12 7.33 34.71-25.4c12.14-4.79 6.49 6.77 21.45 8.75 14.95 1.98 28.49-11.57 28.49-11.57 9.03 40.92 28.5 39.79 28.5 39.79-2.26 18.33-1.69 34.13-1.69 34.13s16.66-.54 12.42 15.26z"/><path d="m857.01 490.94-1.07 4.22-3.45 13.63s-16.37 11.7-29.91 4.93-13.26-19.47-13.26-19.47l2.26-12.94.85-4.9c5.25 4.36 11.65 8.21 19.46 11.07 9.45 3.45 17.83 4.26 25.12 3.46z"/></g><path d="M754.29 491.02 709.31 652l156.52 70.95s34.84-151.54 37.12-189.4c0 0-4.67-9.96-18.45-10.83 0 0-20.93 84.4-26.95 92.13-2.96 3.81-90.44-30.41-95.09-37.39s15.46-87.03 15.46-87.03c-6.78-1.5-14.08-3.03-23.63.59z" class="B F"/><path d="M815.42 444.01c-13.41 0-24.32-13.68-24.32-30.49s10.91-30.49 24.32-30.49 24.32 13.68 24.32 30.49c0 16.82-10.91 30.49-24.32 30.49zm0-58.97c-12.31 0-22.32 12.78-22.32 28.49s10.01 28.49 22.32 28.49 22.32-12.78 22.32-28.49-10.01-28.49-22.32-28.49zm54.99 82.39c-13.41 0-24.32-13.68-24.32-30.49s10.91-30.49 24.32-30.49 24.32 13.68 24.32 30.49-10.91 30.49-24.32 30.49zm0-58.97c-12.31 0-22.32 12.78-22.32 28.49s10.01 28.49 22.32 28.49 22.32-12.78 22.32-28.49-10.01-28.49-22.32-28.49z" class="P B"/><path d="M840.87 466.16c-9.73 0-16.04-6.47-16.34-6.79a.996.996 0 1 1 1.44-1.38c.08.08 8.1 8.26 19.52 5.64.54-.12 1.07.21 1.2.75.12.54-.21 1.07-.75 1.2-1.77.4-3.47.58-5.07.58z" fill="#2e353d" class="B"/><path d="M779.93 454.6a3.16 3.16 0 0 1-2.28-.93c-4.59-4.57 1.55-27.07 2.27-29.62a.997.997 0 1 1 1.92.54c-2.58 9.2-5.62 24.84-2.78 27.66.25.25.65.5 1.54.24 6.6-1.89 5.54-20.01 4.58-26.83-.08-.55.3-1.05.85-1.13a1 1 0 0 1 1.13.85c.38 2.69 3.45 26.34-6.01 29.04a4.68 4.68 0 0 1-1.22.18zm112.36 36.51c-.73 0-1.67-.36-2.46-1.85-4.24-8.04 6.56-25.44 7.02-26.18a1.003 1.003 0 0 1 1.7 1.06c-2.97 4.75-10.02 18.35-6.95 24.18.26.49.55.8.72.78 2.14-.24 6.37-11.07 9.06-20.96.14-.53.69-.85 1.23-.7.53.14.85.69.7 1.23-1.4 5.14-6.3 21.93-10.77 22.43-.08 0-.16.01-.25.01z" class="J B"/><ellipse cx="760.75" cy="191.74" rx="13.03" ry="7.64" transform="rotate(-77.7 760.762 191.77)" class="I"/><g class="F"><ellipse cx="784.17" cy="204.58" rx="13.03" ry="7.64" transform="rotate(-77.7 784.18 204.61)"/><ellipse cx="809.31" cy="215.22" rx="13.03" ry="7.64" transform="rotate(-77.7 809.317 215.256)"/></g><ellipse cx="788.19" cy="655.49" rx="13.63" ry="22.23" transform="rotate(-7.161 788.6 655.612)" class="C"/><path d="M787.79 659.52c-2.04-.9-3.49-3.66-3.25-6.17l.9-9.28c.24-2.51 2.09-3.82 4.13-2.92s3.49 3.66 3.25 6.17l-.9 9.28c-.24 2.5-2.09 3.81-4.13 2.92zm4.59 5.81-.01.06c-.08.81-.56 1.28-1.07 1.05l-2.84-1.25-.46 4.73c-.07.77-.54 1.22-1.03 1l-.52-.23c-.5-.22-.83-1.02-.76-1.79l.46-4.73-2.84-1.25c-.51-.23-.87-1.06-.79-1.87l.01-.06c.08-.8.56-1.27 1.07-1.05l8 3.52c.5.23.86 1.07.78 1.87z" class="B F"/><ellipse cx="829.24" cy="673.56" rx="13.63" ry="22.23" transform="rotate(-7.161 829.682 673.684)" class="C"/><path d="M826.85 686.56c-1.93-2.45-3.03-3.67-3.16-5.3s1.85-5.65 4.1-4.44 1.98 6.34 1.98 6.34c2.19 1.82 6.35-2.04 5.98-5.88 0 0-3.28-1.64-3.14-5.2s3.39-4.69 4.35-3.88 1.33 2.78 2.04 6.41c1.63 8.43-8.62 16.42-12.15 11.95zm3.06-15.27c.39.92.28 2.08-.25 2.6a.77.77 0 0 1-.89.17c-.3-.13-.59-.44-.78-.9l-1.98-4.66-2.68 2.61c-.26.26-.58.3-.88.17s-.59-.44-.78-.9c-.39-.92-.28-2.08.25-2.6l2.68-2.61-1.98-4.66c-.39-.92-.28-2.08.25-2.59.53-.52 1.28-.19 1.66.73l1.98 4.66 2.68-2.61c.53-.52 1.28-.19 1.67.73s.28 2.08-.25 2.59l-2.68 2.61 1.98 4.66z" class="B F"/><ellipse cx="747.13" cy="637.42" rx="13.63" ry="22.23" transform="rotate(-7.161 747.529 637.54)" class="C"/><g class="B"><path d="m749.26 645.78-5.67-2.5c-2.92-1.28-5-5.24-4.65-8.84l.4-4.14c.35-3.6 2.99-5.47 5.91-4.19l5.67 2.5c2.92 1.28 5 5.24 4.65 8.84l-.4 4.14c-.35 3.6-2.99 5.48-5.91 4.19zm.31 5.63-7.3-3.22c-.73-.32-1.25-1.31-1.17-2.21.09-.9.75-1.37 1.48-1.05l7.3 3.22c.73.32 1.25 1.31 1.17 2.21-.09.9-.75 1.37-1.48 1.05z" class="F"/><path d="m751.96 638.3-3.39 1.43c-.36.15-.74-.4-.68-1l.1-1-2.05-.9c-.64-.28-1.28-.33-1.88-.16s-1.17.55-1.65 1.13c-.21.26-.53-.16-.43-.55l.11-.45c.71-2.9 2.67-4.35 4.69-3.46l1.56.69.09-.91c.06-.59.51-.78.81-.34l2.84 4.17c.31.45.24 1.2-.12 1.35z" class="C"/><path d="m422.74 1438.11-.08-.62a45.22 45.22 0 0 0-2.83-10.72c-2.9-7.19-7.66-13.7-13.78-18.82l-.76-.64.97-.23a138.73 138.73 0 0 1 18.23-3.09l.27-.03.17.21c5.19 6.3 9.05 13.37 11.47 21.01a59.71 59.71 0 0 1 2.16 9.35l.08.55-.56.02c-5.19.2-10.29 1.16-14.74 2.79l-.6.22zm-15.3-30.28c5.88 5.12 10.47 11.52 13.31 18.57 1.34 3.33 2.28 6.8 2.81 10.35 4.25-1.48 9.03-2.38 13.91-2.62-.46-2.91-1.14-5.81-2.04-8.64-2.35-7.43-6.09-14.32-11.12-20.47-5.7.6-11.37 1.54-16.87 2.81z" class="R"/><path d="m670.45 1588.75-5.31-19a12.85 12.85 0 0 0-7.05-8.22l-13.89-6.3-12.01 2.46-17.78-8.04.5-7.69-13.3-6.04-11.31 1.51-19.05-8.53-3.81-8.47-41.45-18.79c3.73-5.85 5.91-12.18 6.19-18.79.02-.5.03-1.01.03-1.5v-21.59l-4.95 3.41c-12.39-22.04-46.69-37.9-87.11-37.9-37.9 0-70.46 13.95-84.56 33.9l-7.14-4.29a33.12 33.12 0 0 0-.36 4.89v21.59c0 30.97 41.22 56.08 92.06 56.08 14.97 0 29.11-2.17 41.61-6.05l187.46 84.97c3.36 1.53 6.95-.79 7.38-4.08a3.71 3.71 0 0 0 .05-.67v-21.56l-6.2-1.3zm-230.3-92.39c-18.23 0-33-9-33-20.1 0-3.98 1.89-7.69 5.17-10.79 5.86-5.6 16.14-9.31 27.83-9.31s21.97 3.71 27.83 9.31c3.28 3.1 5.17 6.81 5.17 10.79 0 11.1-14.78 20.1-33 20.1z" class="E"/><path d="m676.45 1588.58-11.3-40.42a12.85 12.85 0 0 0-7.05-8.22l-13.89-6.3-12.01 2.46-17.78-8.04.5-7.69-13.3-6.04-11.31 1.51-19.05-8.53-3.81-8.47-35.26-15.99-6.19-2.8c1.95-3.05 3.46-6.23 4.51-9.5 1.12-3.49 1.71-7.11 1.71-10.79 0-30.98-41.21-56.08-92.06-56.08-48.13 0-87.65 22.51-91.7 51.19a33.12 33.12 0 0 0-.36 4.89c0 30.97 41.22 56.08 92.06 56.08 14.97 0 29.11-2.17 41.61-6.05l187.46 84.97c1.02.46 2.07.57 3.03.4 2.87-.46 5.08-3.36 4.19-6.58zm-208.47-123.12c-5.86 5.59-16.14 9.3-27.83 9.3s-21.97-3.71-27.83-9.3c-3.28-3.1-5.17-6.81-5.17-10.79 0-11.11 14.78-20.11 33-20.11 18.23 0 33 9 33 20.11 0 3.98-1.89 7.69-5.17 10.79z" class="D"/><path d="M438.72 1443.58c0 4.33-.45 8.56-1.33 12.64a61.152 61.152 0 0 1-6.79 17.67c-5.56-1.02-10.51-2.91-14.41-5.42a45.77 45.77 0 0 0 4.28-8.36c2-5.16 3.1-10.73 3.1-16.54 0-2.09-.14-4.14-.42-6.15-.51-3.76-1.48-7.4-2.87-10.84-2.96-7.37-7.78-13.88-13.92-19.02-9.12-7.66-21.15-12.31-34.31-12.31-28.4 0-51.52 21.68-51.52 48.32 0 18.68 11.37 34.92 27.95 42.95 1 6.7 3.94 13.07 8.48 18.87-29.51-6.53-51.57-31.78-51.57-61.83 0-34.99 29.91-63.46 66.66-63.46 21.29 0 40.27 9.54 52.47 24.37 5.06 6.14 8.96 13.19 11.38 20.84.95 3 1.68 6.1 2.14 9.27a59.7 59.7 0 0 1 .68 9zm1158.51 44.38c0 2.35-.23 4.67-.69 6.94-5.54 28.43-44.75 50.45-92.29 50.45-51.35 0-92.98-25.69-92.98-57.4 0-8.99 3.35-17.49 9.32-25.07 15.08-19.14 46.87-32.32 83.66-32.32 20.96 0 40.3 4.28 55.85 11.51 22.56 10.48 37.13 27.14 37.13 45.89z" class="J"/><path d="M1597.23 1487.96v17.95c0 31.7-41.63 57.4-92.98 57.4s-92.98-25.69-92.98-57.4v-17.95c0 31.7 41.63 57.4 92.98 57.4s92.98-25.69 92.98-57.4z" class="S"/><path d="m1560.1 1413.81-53.7 32.74-85.81-11.93c15.08-19.14 46.87-32.32 83.66-32.32 20.96 0 40.31 4.28 55.85 11.51z" class="J"/><path d="M1560.1 1413.81v28.26l-53.7 32.75v-28.27l53.7-32.74z" class="S"/><g fill="#db5749"><path d="M1420.6 1434.63v28.26l85.8 11.93v-28.27l-85.8-11.92z"/><path d="M1597.23 1487.96c0 2.35-.23 4.67-.69 6.94l-90.15-20.09 53.7-32.74c22.57 10.48 37.14 27.14 37.14 45.89z"/></g><path d="m1362.37 1508.7 27.67 12.54-19.04 14.31-27.67-12.54 19.04-14.31z" class="K"/><path d="M1390.04 1521.24v57.04l-19.04 14.31v-57.04l19.04-14.31z" class="N"/><path d="M1343.33 1523.01v57.04l27.67 12.54v-57.04l-27.67-12.54z" fill="#d6dcea"/><path d="M1390.04 1521.24v57.04l-19.04 14.31v-57.04l19.04-14.31z" class="G"/><path d="M1343.33 1523.01v57.04l27.67 12.54v-57.04l-27.67-12.54z" class="L"/><path d="m1328.25 1548.93 27.66 12.54-19.03 14.32-27.67-12.54 19.04-14.32z" class="J"/><path d="M1355.91 1561.47v42.46l-19.03 14.31v-42.45l19.03-14.32z" fill="#db5749"/><path d="M1309.21 1563.25v42.45l27.67 12.54v-42.45l-27.67-12.54z" class="S"/><path d="m1291.93 1595.03 27.67 12.54-19.04 14.31-27.66-12.54 19.03-14.31z" class="D"/><path d="M1319.6 1607.57v23.66l-19.04 14.31v-23.66l19.04-14.31z" fill="#ea990a"/><path d="M1272.9 1609.34V1633l27.66 12.54v-23.66l-27.66-12.54z" class="E"/><path d="m948.19 496.28 16.92-12.85a10.32 10.32 0 0 1 10.52-1.18l82.45 37.37a6.62 6.62 0 0 0 9.24-4.85l6.85-37.84a8.48 8.48 0 0 0-4.84-9.23l-100.99-45.77c-5.33-2.42-11.51.83-12.56 6.59l-11.79 65.19c-.43 2.37 2.28 4.03 4.2 2.57z" class="K"/><path d="M1054.94 492.83c-.06 0-.12-.01-.18-.02-8.88-1.63-10.9-6.72-12.67-11.21-1.45-3.66-2.59-6.55-7.09-7.41-5.44-1.05-7.46 1.07-9.41 3.12-1.66 1.75-3.55 3.72-7.26 2.33-3.6-1.35-4.06-4.97-4.5-8.47-.52-4.16-.97-7.75-5.79-8.7-4.04-.8-8.45 2.36-12 4.89-3.13 2.24-5.61 4-7.55 3-1.38-.71-2-2.58-2-6.05 0-7.22-2.93-13.09-7.64-15.31-4.22-1.99-9.35-.79-14.43 3.39a1 1 0 1 1-1.27-1.55c5.71-4.7 11.59-6 16.56-3.65 5.42 2.56 8.78 9.12 8.78 17.12 0 3.53.7 4.16.91 4.27.86.44 3.31-1.31 5.47-2.85 3.86-2.75 8.67-6.18 13.54-5.22 6.23 1.23 6.87 6.32 7.39 10.41.4 3.18.74 5.92 3.21 6.85s3.46-.11 5.1-1.84c1.99-2.09 4.72-4.96 11.24-3.71 5.58 1.07 7.1 4.92 8.57 8.64 1.66 4.2 3.38 8.55 11.17 9.98a1 1 0 0 1 .8 1.16.95.95 0 0 1-.95.83z" class="C"/><path d="m1243.92 809.83-28.87 159.59a21.19 21.19 0 0 1-9.74 14.35c-.06.03-.12.07-.18.11a55.11 55.11 0 0 1-2.23 1.18h-.01c-5.37 2.45-11.77 2.72-17.72.02L999.8 901.07a20.53 20.53 0 0 1-11.72-22.34l31.99-176.81c.53-2.93 2.16-5.33 4.34-6.89 0 0 .05-.04.14-.09.23-.13.7-.41 1.4-.83 2.8-1.42 6.23-1.63 9.4-.2l193.84 87.86c10.77 4.88 16.83 16.45 14.73 28.06z" class="O"/><path d="m1292.12 780.76-27.27 143.93a44.208 44.208 0 0 1-14.81 25.29c-12.54 10.66-32.33 26.84-44.73 33.79 4.9-3.04 8.6-8.06 9.74-14.35l28.87-159.59c2.1-11.61-3.97-23.18-14.72-28.06l-193.84-87.86a10.844 10.844 0 0 0-9.4.2l51.32-30.1c2.04-.34 4.21-.11 6.28.83l193.84 87.86c10.75 4.86 16.82 16.43 14.72 28.06z" class="I"/><path d="m1112.01 845.58-.65 37.42-29.96-13 13.16-31.99c-3.36-4.94-4.92-11.39-3.73-17.41 1.94-9.75 10.38-14.67 18.86-10.98 8.47 3.68 13.77 14.56 11.83 24.3-1.2 6.03-4.87 10.21-9.51 11.66z" class="P"/><path d="m1081.4 869.99 13.16-31.99c-3.37-4.94-4.92-11.39-3.72-17.41 1.66-8.39 8.13-13.19 15.31-12.05-1.01 1.65-1.77 3.59-2.2 5.76-1.2 6.02.36 12.47 3.72 17.41l-13.16 31.99 17.06 7.4-.2 11.9-29.97-13.01z" class="I"/><path d="m1094.51 863.7-13.11 6.29 29.97 13.01.21-11.9-17.07-7.4z" class="P"/><path d="m1107.67 831.72-13.11 6.28-13.16 31.99 13.11-6.29 13.16-31.98z" fill="#0d6bc9"/><path d="M1244.35 772.88c-.81 0-1.65-.08-2.49-.26-6.79-1.39-11.67-8.05-10.9-14.88.14-1.27 13.36-127.65-55.18-148.61-16.22-4.96-29.98-3.77-42.06 3.63-31.59 19.38-40.21 74.04-40.29 74.59-1.03 6.77-7.32 10.93-14.07 9.29s-11.4-8.44-10.39-15.21c.4-2.67 10.22-65.7 50.6-90.56 17.75-10.92 38.4-12.9 61.36-5.88 38.28 11.71 63.26 46.95 72.24 101.9 6.38 39.04 2.53 74.39 2.36 75.88-.67 5.99-5.45 10.11-11.18 10.11z" class="O"/><path d="m1625.66 795.39 29.59-6.69-.69-25.24-30.23-17.54-6.25-20.73 15.81-30.36-13.48-21.69-28.71 9.54-14.73-13.08-5.38-39.85-19.94-7.99-13.74 32.19-16.35.64-24.03-30.67-17.1 9.45 7.65 39.76-10.29 14.1-31.46-7.17-6.23 22.47 25.45 28.73.57 20.94-24.15 19.71 7.53 24.99 31.38 4.25 11.17 18-5.55 37.35 17.77 15.79 22.6-22.21 16.54 6.63 15.63 37.52 19.72-.77 3.23-38.28 14.18-7.85 29.53 20.14 12.41-17-17.62-36.43 5.17-18.65zm-93.94 22.7c-27.32-10.94-46.32-46.73-42.46-79.91 3.86-33.2 29.13-51.23 56.45-40.29s46.32 46.71 42.46 79.91c-3.86 33.17-29.13 51.23-56.45 40.29z" class="K"/><path d="m1592.94 613.68-21.36 16.06-19.94-7.99 21.36-16.06 19.94 7.99z" class="G"/><path d="m1592.94 613.68 5.38 39.85-21.36 16.06-5.38-39.85 21.36-16.06z" class="H"/><path d="m1598.32 653.53 14.73 13.08-21.36 16.06-14.73-13.08 21.36-16.06z" class="L"/><path d="m1613.05 666.61 28.72-9.54-21.37 16.06-28.71 9.54 21.36-16.06z" class="H"/><path d="m1641.77 657.07 13.47 21.69-21.36 16.06-13.48-21.69 21.37-16.06z" class="G"/><path d="m1655.24 678.76-15.81 30.37-21.37 16.06 15.82-30.37 21.36-16.06z" class="H"/><path d="m1639.43 709.13 6.25 20.73-21.36 16.06-6.26-20.73 21.37-16.06z" class="L"/><path d="m1654.55 763.46 21.37-16.06-30.24-17.54-21.36 16.06 30.23 17.54z" class="H"/><path d="m1655.24 788.7 21.37-16.06-.69-25.24-21.37 16.06.69 25.24z" class="G"/><path d="m1641.84 797.96-21.36 16.06 5.18-18.63 18.03-4.08-1.85 6.65z" class="L"/><path d="m1620.48 814.02 17.61 36.44 21.37-16.06-17.62-36.44-21.36 16.06z" class="H"/><path d="m1625.68 867.46 21.37-16.06 12.41-17-21.37 16.06" class="G"/><path d="m1578.74 893.44 21.37-16.06 2.18-25.88-6.14-4.19-14.17 7.85-3.24 36.91m-74.49-19.79 21.37-16.06 4.8-4.72-3.57-1.43-22.6 22.21z" class="H"/><path d="m1446.31 680.06 21.37-16.06 19.42 4.1.96 5.02-10.29 14.1-31.46-7.16z" class="L"/><path d="m1497.51 623.91 21.37-16.06 24.03 30.67-21.37 16.06-24.03-30.67z" class="H"/><path d="m1501.78 617.3-21.37 16.06 17.1-9.45 21.37-16.06-17.1 9.45z" class="G"/><path d="m1542.91 638.52 1.59-.07-6.61 15.49-16.35.64 21.37-16.06zm32.34 170.13c-10.75 11.94-26.75 16.16-43.53 9.44-27.31-10.95-46.32-46.74-42.45-79.91 2.77-23.81 16.55-39.83 34.2-42.93-6.76 7.51-11.43 18.05-12.93 30.86-3.86 33.17 15.14 68.98 42.45 79.91 7.74 3.09 15.3 3.86 22.26 2.63z" class="L"/><path d="m1448.36 610.8 17.89-4.04-.42-15.26-18.28-10.6-3.78-12.53 9.56-18.35-8.15-13.11-17.36 5.77-8.91-7.91-3.25-24.09-12.06-4.83-8.31 19.46-9.88.38-14.53-18.54-10.34 5.71 4.63 24.04-6.22 8.53-19.02-4.33-3.76 13.58 15.38 17.37.35 12.66-14.6 11.91 4.55 15.11 18.97 2.57 6.75 10.88-3.36 22.58 10.75 9.54 13.66-13.43 10 4.01 9.45 22.68 11.92-.47 1.95-23.14 8.57-4.74 17.85 12.18 7.5-10.28-10.65-22.03 3.15-11.28zm-56.78 13.72c-16.51-6.61-28-28.25-25.67-48.31 2.34-20.07 17.61-30.97 34.12-24.36s28 28.24 25.67 48.31c-2.33 20.06-17.61 30.97-34.12 24.36z" class="D"/><path d="m1428.58 500.95-12.91 9.71-12.06-4.83 12.92-9.71 12.05 4.83z" class="Q"/><path d="m1428.58 500.95 3.25 24.09-12.91 9.71-3.25-24.09 12.91-9.71z" class="M"/><path d="m1431.83 525.04 8.91 7.91-12.92 9.71-8.9-7.91 12.91-9.71z" class="E"/><path d="m1440.74 532.95 17.36-5.77-12.92 9.71-17.36 5.77 12.92-9.71z" class="M"/><path d="m1458.1 527.18 8.14 13.11-12.91 9.71-8.15-13.11 12.92-9.71z" class="Q"/><path d="m1466.24 540.29-9.55 18.36-12.92 9.71 9.56-18.36 12.91-9.71z" class="M"/><path d="m1456.69 558.65 3.78 12.53-12.92 9.71-3.78-12.53 12.92-9.71z" class="E"/><path d="m1465.83 591.49 12.91-9.7-18.27-10.61-12.92 9.71 18.28 10.6z" class="M"/><path d="m1466.25 606.75 12.91-9.7-.42-15.26-12.91 9.7.42 15.26z" class="Q"/><path d="m1458.15 612.35-12.92 9.71 3.13-11.26 10.9-2.47-1.11 4.02z" class="E"/><path d="m1445.23 622.06 10.65 22.03 12.91-9.71-10.64-22.03-12.92 9.71z" class="M"/><path d="m1448.37 654.36 12.92-9.7 7.5-10.28-12.91 9.71" class="D"/><path d="m1420 670.07 12.91-9.7 1.33-15.65-3.72-2.53-8.57 4.74-1.95 22.32m-45.03-11.97 12.91-9.71 2.91-2.85-2.16-.87-13.66 13.43zm-35.03-116.21 12.92-9.7 11.74 2.48.58 3.03-6.22 8.53-19.02-4.34z" class="E"/><path d="m1370.89 507.13 12.92-9.7 14.53 18.53-12.92 9.71-14.53-18.54z" class="M"/><path d="m1373.47 503.14-12.92 9.71 10.34-5.72 12.92-9.7-10.34 5.71z" class="Q"/><path d="m1398.34 515.96.96-.03-4 9.36-9.88.38 12.92-9.71zm19.55 102.85c-6.5 7.22-16.17 9.77-26.31 5.71-16.51-6.62-28-28.25-25.67-48.31 1.67-14.39 10-24.08 20.68-25.95-4.09 4.54-6.91 10.91-7.81 18.66-2.33 20.05 9.15 41.7 25.67 48.31 4.66 1.86 9.23 2.33 13.44 1.58z" class="E"/><path d="m857.01 490.94-1.07 4.22c-6.36 1.51-16.21 2.71-25.54-.87-9.25-3.55-15.39-9.1-18.82-12.98l.85-4.9c5.25 4.36 11.65 8.21 19.46 11.07 9.45 3.45 17.83 4.26 25.12 3.46z" fill="#c75f48"/><path d="M848.29 428.58a.84.84 0 0 1-.38-.08l-10.82-4.48c-.51-.21-.75-.8-.54-1.31s.8-.75 1.31-.54l10.82 4.48a1.004 1.004 0 0 1-.39 1.93zm59.22 13.18c-.04 0-.09 0-.13-.01l-13.83-1.8a.995.995 0 0 1-.86-1.12 1 1 0 0 1 1.12-.86l13.83 1.8c.55.07.93.57.86 1.12a1.01 1.01 0 0 1-.99.87z" class="P"/><path d="M578.69 1105.43c-.03.05-.05.11-.09.16a.3.3 0 0 0-.04.1l-1.27 2.4-1.16 2.09-.15.26-.68 1.17-.26.44-.25.4-.85 1.4a.21.21 0 0 1-.04.06l-1.23 1.94-1.69 2.5-1.76 2.44-1.44 1.89-.64.81-1.04 1.28-.72.89-.3.36-1.56 1.82-1.91 2.11-.42.44-1.46 1.53-.69.7-.91.89-1.22 1.18-1.74 1.61-2.51 2.21-4.52 3.62-.27.22h-.01c-.03.02-.06.05-.1.08l-68.68 51.62a79.303 79.303 0 0 1-37.6 15.27 79.232 79.232 0 0 1-42.63-6.33 2.14 2.14 0 0 1-.22-.1l-115.14-52.19c-6.4-2.9-11.64-7.59-15.22-13.32a34.97 34.97 0 0 1-5.32-18.55V623.41c0-7.95 3.74-15.45 10.09-20.23l129.02-96.97c3.92-2.94 9.51-.15 9.51 4.74v496.15a34.97 34.97 0 0 0 5.32 18.55 35.01 35.01 0 0 0 15.22 13.32l9.37 4.25 137.21 62.21z" class="G"/><use xlink:href="#K" class="K"/><use xlink:href="#K" fill="url(#A)"/><path d="m806.25 922.59-99.05 74.45-49.57 37.26-67.55-30.62-35.53-16.11-42.14-19.1-31.08-14.08-.06-.03c-18.49-8.38-35.98-3.09-39.8 27.28v-19.3c0-8.27 1.97-16.3 5.59-23.49a52.36 52.36 0 0 1 5.06-8.08l.09-.12.97-1.22c.02-.03.05-.06.08-.1.28-.35.57-.69.87-1.03 1.32-1.54 2.74-3 4.24-4.37.28-.26.57-.53.88-.78.96-.85 1.98-1.68 3.02-2.46l88.94-66.86a81.914 81.914 0 0 1 38.89-15.8c14.84-1.9 30.19.25 44.3 6.65l29.57 13.4 4.39 1.99 137.89 62.52z" class="G"/><g class="C"><path d="M284.57 826.68v5.88c0 1.98 2.26 3.11 3.85 1.92l103.49-77.87a9.63 9.63 0 0 0 3.84-7.7v-3.17a2.23 2.23 0 0 0-3.57-1.78l-106.12 79.77a3.66 3.66 0 0 0-1.49 2.95zm0-69.32v5.88c0 1.98 2.26 3.11 3.85 1.92l103.49-77.87a9.63 9.63 0 0 0 3.84-7.7v-3.17a2.23 2.23 0 0 0-3.57-1.78L286.06 754.4c-.94.7-1.49 1.8-1.49 2.96z"/><use xlink:href="#L"/><use xlink:href="#L" y="32.7"/><path d="M284.57 967.76v5.88c0 1.98 2.26 3.11 3.85 1.92l39.31-29.63a9.63 9.63 0 0 0 3.84-7.7v-3.17a2.23 2.23 0 0 0-3.57-1.78l-41.94 31.52c-.94.7-1.49 1.8-1.49 2.96zm0-109.31v5.88c0 1.98 2.26 3.11 3.85 1.92l66.31-49.93a9.63 9.63 0 0 0 3.84-7.7v-3.17a2.23 2.23 0 0 0-3.57-1.78l-68.94 51.82c-.94.69-1.49 1.79-1.49 2.96zm0 34.16v5.88c0 1.98 2.26 3.11 3.85 1.92l66.31-49.93a9.63 9.63 0 0 0 3.84-7.7v-3.17a2.23 2.23 0 0 0-3.57-1.78l-68.94 51.82c-.94.7-1.49 1.8-1.49 2.96z"/></g></g><ellipse cx="308.07" cy="644.48" rx="23.96" ry="11.77" transform="rotate(-69.096 308.096 644.478)" class="C"/><g class="B"><path d="M308.07 673.02c-11.88 8.9-21.51 28.01-21.51 42.7v5.8l43.03-32.22v-5.8c0-14.68-9.64-19.37-21.52-10.48zm36.18-30.95v22.04c0 1.81 2.07 2.85 3.52 1.76l70.64-53.1a11.43 11.43 0 0 0 4.56-9.13v-19.61c0-2-2.28-3.13-3.88-1.94l-71.88 54.03a7.498 7.498 0 0 0-2.96 5.95zm0-31.83v9.12c0 .75.86 1.18 1.46.73l29.23-21.97a4.717 4.717 0 0 0 1.89-3.78v-8.11a1 1 0 0 0-1.6-.8l-29.74 22.36a3.03 3.03 0 0 0-1.24 2.45z" class="C"/><g class="D"><use xlink:href="#M"/><use xlink:href="#M" x="12.72" y="-9.71"/><path d="m386.07 615.41.64 2.08c.13.42.37.58.66.45l1.43-.68c.72-.34 1.01 1.19.49 2.59l-1.03 2.78a4.07 4.07 0 0 0-.25 1.73l.24 2.63c.12 1.33-.63 2.98-1.27 2.8l-1.28-.36c-.26-.07-.56.16-.82.62l-1.28 2.3c-.64 1.16-1.39.65-1.27-.86l.24-3c.05-.6-.05-1.1-.25-1.35l-1.03-1.21c-.52-.61-.23-2.58.49-3.33l1.43-1.5c.29-.3.53-.84.66-1.45l.64-3.05c.31-1.52 1.24-2.23 1.56-1.19zm12.73-9.71.64 2.08c.13.42.37.58.66.45l1.43-.68c.72-.34 1.01 1.19.49 2.59l-1.03 2.78a4.07 4.07 0 0 0-.25 1.73l.24 2.63c.12 1.33-.63 2.98-1.27 2.8l-1.28-.36c-.26-.07-.56.16-.82.62l-1.28 2.3c-.64 1.16-1.39.65-1.27-.86l.24-3c.05-.6-.05-1.1-.25-1.35l-1.03-1.21c-.52-.61-.23-2.58.49-3.33l1.43-1.5c.29-.3.53-.84.66-1.45l.64-3.05c.31-1.53 1.23-2.24 1.56-1.19z"/><use xlink:href="#M" x="50.89" y="-38.85"/></g><path d="m1002.12 1003.49-163.77 123.1c-16.64 12.5-38.77 14.94-57.72 6.35L480.07 996.71c-5.17-2.34-5.95-9.37-1.41-12.79l184.3-138.54a25.88 25.88 0 0 1 14.91-5.18c3.84-.11 7.73.65 11.36 2.29l310.66 140.77c3.59 1.63 5.85 4.68 6.63 8.06 1 4.32-.37 9.14-4.4 12.17z" class="C"/><g class="F"><path d="M1006.51 991.57c-18.21.6-36.42.68-54.62.64l-13.65-.08-13.65-.17-27.29-.66-54.56-2.32-27.29-.49c-9.1-.11-18.2 0-27.3 0l-27.3.11-13.65-.05-10.23-.09-1.71-.02c-.57-.01-1.22-.05-1.82-.08-1.23-.02-2.45-.26-3.67-.41-1.2-.28-2.42-.49-3.59-.9-2.37-.69-4.63-1.73-6.75-2.99-4.26-2.51-7.89-6.07-10.53-10.28-1.34-2.09-2.36-4.38-3.17-6.73-.75-2.47-1.19-4.57-1.75-6.81l-3.19-13.27-12.08-53.25-11.09-53.48.49-.12 14.43 52.68 13.44 52.92 3.19 13.27c.53 2.18 1.04 4.53 1.62 6.42.68 1.94 1.45 3.88 2.55 5.63 2.13 3.54 5.11 6.59 8.66 8.76 1.77 1.09 3.65 2.01 5.64 2.63.98.37 2.01.55 3.02.82 1.03.14 2.06.38 3.1.41l27.17.92 27.28 1.16 27.28 1.04 27.29.56c18.2.2 36.41-.26 54.61-.22l27.29.39 13.64.35 13.64.45 54.55 2.73v.53z"/><path d="M800.32 987.36c1.37 12.53 2.24 25.07 2.95 37.61.4 6.27.62 12.55.92 18.82l.64 18.83.37 18.83.09 18.84c-.03 12.56-.24 25.13-.95 37.71-1.37-12.53-2.25-25.07-2.95-37.61l-.92-18.82-.63-18.83-.36-18.83-.08-18.84c.02-12.56.22-25.12.92-37.71zm-324.5 3.96c18.54-5.5 37.2-10.52 55.9-15.38l28.08-7.15 28.14-6.88 28.21-6.61 28.27-6.34 56.81-11.59c-18.54 5.51-37.2 10.53-55.9 15.38l-28.08 7.15-28.15 6.87-28.21 6.61-28.27 6.34-56.8 11.6z"/></g><g class="C"><path d="M1279.97 1310.67v226.42c0 5.39-2.53 10.46-6.84 13.69l-217.37 163.39-27.85 20.93c-4.38 3.29-10.64.16-10.64-5.32v-221.32c0-7.37 3.46-14.3 9.36-18.72l244.27-183.61c3.73-2.81 9.07-.13 9.07 4.54z"/><path d="M1279.97 1407.43v129.66c0 5.39-2.53 10.46-6.84 13.69l-217.37 163.39-38.5 12.98v-122.27l262.71-197.45z"/></g><g class="F"><use xlink:href="#J" x="45.87" y="24.37"/><path d="M1279.97 1310.67v18.85l-262.7 197.47v-18.52c0-7.37 3.46-14.3 9.36-18.72l244.27-183.61c3.73-2.82 9.07-.14 9.07 4.53z"/></g><path d="M1095.63 1545.99c-20.23-12.96-47.6-25.37-78.36-4.78v63.67l78.36-58.89z" class="K"/></g><ellipse cx="1214.22" cy="1416.34" rx="13.72" ry="8.17" transform="rotate(-86.342 1214.175 1416.29)" class="D"/><g class="B"><path d="M1279.97 1378.26v127.54c-36.58 22.69-51.14-19.06-32.45-23.84 19.89-5.07 10.58-19.47-2.12-55.08-12.7-35.6 34.57-48.62 34.57-48.62zm0 132.91c-8.11 9.52-27.58 10.37-44.94 22.86-17.35 12.49-9.96 28.26-9.96 28.26l54.9-41.27v-9.85zm-151.36 123.62c-11.03 9.7-61.4 6.74-82.56 15.63s-28.78 21.16-28.78 21.16v46.9l111.34-83.69z" class="K"/><g class="J"><path d="m1116.77 1575.37 79.73-58.69s.97 20.07-14.26 37.89c-4.45 5.2-18.15 16.58-29.82 24.01-21.56 13.74-35.65-3.21-35.65-3.21zm26.34-92.56v51.78s32.83-24.78 30.93-31.01c-1.89-6.24-30.93-20.77-30.93-20.77z"/><path d="M1143.11 1555.98v-21.4l3.5-2.71v21.53l-3.5 2.58z"/></g></g></g><defs><path id="B" d="m729.92 1044.66-53.33-24.24a4.13 4.13 0 0 1-.77-7.06l11.21-8.42a4.14 4.14 0 0 1 4.19-.46l53.33 24.24a4.13 4.13 0 0 1 .77 7.06l-11.21 8.42a4.116 4.116 0 0 1-4.19.46z"/><path id="C" d="m812.68 1082.28-53.33-24.24a4.13 4.13 0 0 1-.77-7.06l11.21-8.42a4.14 4.14 0 0 1 4.19-.46l53.33 24.24a4.13 4.13 0 0 1 .77 7.06l-11.21 8.42c-1.2.91-2.81 1.08-4.19.46z"/><path id="D" d="m690.83 1173.5-134.89-61.3c-3.26-1.48-3.74-5.91-.88-8.06l10.15-7.63a4.685 4.685 0 0 1 4.78-.52l134.89 61.3c3.26 1.48 3.74 5.91.88 8.06l-10.15 7.63a4.73 4.73 0 0 1-4.78.52z"/><path id="E" d="m856.37 1248.73-52.13-23.69c-3.26-1.48-3.74-5.91-.88-8.06l10.15-7.63a4.685 4.685 0 0 1 4.78-.52l52.13 23.69c3.26 1.48 3.74 5.91.88 8.06l-10.15 7.63a4.73 4.73 0 0 1-4.78.52z"/><path id="F" d="m979.26 1231.28-52.97-24.07c-2.97-1.35-3.42-5.39-.81-7.36l10.89-8.19a4.303 4.303 0 0 1 4.37-.48l52.98 24.07c2.97 1.35 3.42 5.39.81 7.36l-10.89 8.19a4.326 4.326 0 0 1-4.38.48z"/><path id="G" d="m896.1 1156.84-53.66-24.39c-2.75-1.25-3.16-4.98-.74-6.8l11.49-8.64a3.98 3.98 0 0 1 4.03-.44l53.66 24.38c2.75 1.25 3.16 4.98.74 6.8l-11.49 8.64a3.96 3.96 0 0 1-4.03.45z"/><path id="H" d="m660.11 1196.19-50.83-23.1c-3.69-1.68-4.24-6.69-1-9.12l9.01-6.78a5.331 5.331 0 0 1 5.41-.59l50.83 23.1c3.69 1.68 4.24 6.69 1 9.12l-9.01 6.77a5.33 5.33 0 0 1-5.41.6z"/><path id="I" d="m834.59 1202.18-50.8-23.09c-3.7-1.68-4.25-6.71-1-9.15l8.98-6.75a5.345 5.345 0 0 1 5.43-.59l50.8 23.09c3.7 1.68 4.25 6.71 1 9.15l-8.98 6.75a5.368 5.368 0 0 1-5.43.59z"/><path id="J" d="M1234.1 1496.65v16.07c0 5.39-2.53 10.46-6.84 13.69l-245.22 184.32c-4.38 3.29-10.64.16-10.64-5.32v-11.3l262.7-197.46z"/><path id="K" d="M590.08 838.04v219.58l-.02 2.29-.04 1.36-.04 1.06-.08 1.47-.23 3.22-.14 1.38v.01l-.17 1.57-.19 1.56-.27 1.94-.43 2.63-.36 1.89-.35 1.71-.38 1.71-.38 1.57-.4 1.6-.45 1.63-.48 1.67c-1 3.33-2.14 6.6-3.45 9.8l-.8 1.89c-.84 1.97-1.75 3.92-2.73 5.84-.03.05-.05.11-.09.16a.3.3 0 0 0-.04.1 68.52 68.52 0 0 1-1.27 2.4l-1.16 2.09c-.05.09-.1.17-.15.26l-.68 1.17c-.09.15-.17.3-.26.44-.08.13-.16.27-.25.4-.27.48-.56.93-.85 1.4a.21.21 0 0 1-.04.06l-1.23 1.94a73.28 73.28 0 0 1-1.69 2.5 99.97 99.97 0 0 1-1.76 2.44c-.47.64-.95 1.27-1.44 1.89-.21.28-.42.54-.64.81l-1.04 1.28c-.23.3-.48.59-.72.89-.1.12-.19.24-.3.36-.51.62-1.03 1.22-1.56 1.82l-1.91 2.11-.42.44a52.73 52.73 0 0 1-1.46 1.53l-.69.7-.91.89c-.4.4-.81.79-1.22 1.18l-1.74 1.61c-.82.76-1.65 1.49-2.51 2.21a99.426 99.426 0 0 1-4.52 3.62c-.09.08-.18.15-.27.22h-.01c-.03.02-.06.05-.1.08l-68.68 51.62a79.303 79.303 0 0 1-37.6 15.27 78.65 78.65 0 0 1-27-1.18c1.3-.02 25.28-.74 27-25.03V962.34c0-8.27 1.97-16.3 5.59-23.49a52.118 52.118 0 0 1 15.2-18.15l88.94-66.86c11.57-8.7 25-14.02 38.87-15.8z"/><path id="L" d="M284.57 1000.73v5.88c0 1.98 2.26 3.11 3.85 1.92l103.49-77.87a9.63 9.63 0 0 0 3.84-7.7v-3.17a2.23 2.23 0 0 0-3.57-1.78l-106.12 79.77c-.94.68-1.49 1.78-1.49 2.95z"/><path id="M" d="m360.63 634.84.64 2.08c.13.42.37.58.66.45l1.43-.68c.72-.34 1.01 1.19.49 2.59l-1.03 2.78a4.07 4.07 0 0 0-.25 1.73l.24 2.63c.12 1.33-.63 2.98-1.27 2.8l-1.28-.36c-.26-.07-.56.16-.82.62l-1.28 2.3c-.64 1.16-1.39.65-1.27-.86l.24-3c.05-.6-.05-1.1-.25-1.35l-1.03-1.21c-.52-.61-.23-2.58.49-3.33l1.43-1.5c.29-.3.53-.84.66-1.45l.64-3.05c.31-1.53 1.24-2.24 1.56-1.19z"/><linearGradient id="A" x1="485.63" y1="883.808" x2="509.756" y2="1085.701" gradientUnits="userSpaceOnUse"><stop offset="0" stop-color="#82af82" stop-opacity=".38"/><stop offset="1" stop-color="#bef4be" stop-opacity=".38"/></linearGradient></defs></svg>